<svg version="1.1" xmlns="http://www.w3.org/2000/svg" viewBox="0 0 1510.1779357971334 469.48992310762947" width="1510.1779357971334" height="469.48992310762947">
  <!-- svg-source:excalidraw -->
  
  <defs>
    <style class="style-fonts">
      @font-face {
        font-family: "Virgil";
        src: url("https://excalidraw.com/Virgil.woff2");
      }
      @font-face {
        font-family: "Cascadia";
        src: url("https://excalidraw.com/Cascadia.woff2");
      }
    </style>
  </defs>
  <g stroke-linecap="round" transform="translate(14.774873697890825 105.93722599925015) rotate(0 265.01146942447167 174.0938513681785)"><path d="M-0.44 0.06 C188.81 2.55, 377.43 2.42, 529.42 -0.64 M0.03 -0.28 C179.15 1.5, 357.9 1.77, 529.77 0.38 M529.47 -0.67 C531 71.4, 530.64 139.9, 530.55 349.05 M530.06 0.18 C532.31 94.1, 532.17 188.04, 530.05 348.11 M529.78 348.12 C319.12 348.3, 109.15 347.21, 0.73 347.85 M529.97 348.5 C366.02 348.63, 201.53 349.04, -0.28 347.9 M-0.21 348.02 C-1.49 250.66, -0.75 152.74, -1.19 -1.12 M-0.11 347.81 C0.58 266.18, 0.93 184.25, 0.12 0.08" stroke="#000000" stroke-width="1" fill="none"></path></g><g transform="translate(131.15652134501875 268.0310773674286) rotate(0 148.62982177734375 12)"><text x="148.62982177734375" y="0" font-family="Virgil, Segoe UI Emoji" font-size="20px" fill="#364fc7" text-anchor="middle" style="white-space: pre;" direction="ltr" dominant-baseline="text-before-edge">Click to go to the next page </text></g><g stroke-linecap="round" transform="translate(14.2521027352916 108.06033412786782) rotate(0 44.5138390257124 9.7791717052433)"><path d="M-1.26 -1.44 L88.69 -1.9 L89.75 21.36 L1.25 20.57" stroke="none" stroke-width="0" fill="#ced4da"></path><path d="M0.14 -0.16 C30.88 -0.29, 59.9 -1.01, 87.42 0.75 M-0.71 0.55 C30.11 0.05, 60.68 -0.7, 89.98 -0.98 M88.03 -1.14 C90.45 5.68, 87.51 15.52, 90.33 18.95 M89.3 0.29 C89.66 7.75, 90.01 15.38, 88.91 20.51 M88.86 18.99 C56.67 20.46, 20.62 21.1, -0.84 19.75 M89.8 19.67 C63.38 18.47, 39.6 18.75, -0.71 19.36 M-0.25 20.1 C0.32 13.75, -0.03 2.85, -1.68 -1.26 M-0.57 19.45 C-0.19 14.67, -0.09 9.13, 0.13 0.09" stroke="#000000" stroke-width="1" fill="none"></path></g><g stroke-linecap="round" transform="translate(185.2773453107436 106.06006263994199) rotate(0 178.60262979129698 11.648900422123916)"><path d="M-1.44 -0.34 L355.31 0.72 L359 24.54 L1.01 21.48" stroke="none" stroke-width="0" fill="#ced4da"></path><path d="M-0.1 0.98 C73.95 0.61, 147.92 -1.19, 357.68 0.46 M0.35 0.14 C83.49 2.19, 166.41 2.22, 356.58 0.49 M356.04 1.45 C355.38 5.49, 357.92 15.42, 356.59 25.14 M357.5 0.59 C357.3 8.59, 357.26 15.18, 358.18 24.04 M356.84 23.91 C255.35 21.99, 153.16 22.57, 0.12 23.02 M357.28 22.75 C236.19 25.16, 115.96 24.6, -0.12 23.82 M0.55 23.54 C1.73 17.17, -1.78 9.56, -1.29 -0.58 M-0.11 23.27 C0.46 14.5, 0.22 5.7, 0.09 -0.63" stroke="#000000" stroke-width="1" fill="none"></path></g><g stroke-linecap="round"><g transform="translate(11.603777985935949 138.99855556556997) rotate(0 264.4846968806488 -1.2006240340610361)"><path d="M-0.09 0.92 C88.44 0.64, 442.2 -0.88, 530.57 -1.57 M-1.6 0.35 C86.79 -0.27, 440.35 -2.85, 529.38 -3.32" stroke="#000000" stroke-width="1" fill="none"></path></g></g><mask></mask><g transform="translate(51.62465015345265 119.15405415700845) rotate(0 0.00006214071129306831 0.00006214071130727916)" stroke="none"><path fill="#e67700" d="M 3.14,-3.14 Q 3.14,-3.14 3.55,-2.55 3.97,-1.97 4.18,-1.28 4.40,-0.59 4.38,0.11 4.36,0.83 4.11,1.51 3.86,2.18 3.41,2.74 2.96,3.30 2.36,3.69 1.75,4.07 1.05,4.25 0.36,4.42 -0.35,4.36 -1.07,4.30 -1.73,4.02 -2.39,3.74 -2.92,3.26 -3.46,2.78 -3.81,2.15 -4.16,1.53 -4.30,0.82 -4.43,0.11 -4.34,-0.59 -4.24,-1.30 -3.92,-1.94 -3.60,-2.59 -3.09,-3.09 -2.59,-3.60 -1.94,-3.92 -1.30,-4.24 -0.59,-4.34 0.12,-4.43 0.82,-4.30 1.53,-4.16 2.15,-3.81 2.78,-3.46 3.26,-2.92 3.74,-2.39 4.02,-1.73 4.31,-1.07 4.36,-0.35 4.42,0.36 4.25,1.05 4.07,1.75 3.69,2.36 3.30,2.96 2.74,3.41 2.18,3.86 1.51,4.11 0.83,4.36 0.11,4.38 -0.60,4.40 -1.28,4.18 -1.97,3.97 -2.55,3.55 -3.14,3.13 -3.14,3.14 -3.14,3.14 -3.47,2.71 -3.80,2.29 -4.02,1.80 -4.24,1.32 -4.33,0.79 -4.43,0.26 -4.40,-0.26 -4.36,-0.80 -4.20,-1.31 -4.04,-1.82 -3.77,-2.28 -3.49,-2.73 -3.11,-3.11 -2.73,-3.49 -2.28,-3.77 -1.82,-4.05 -1.31,-4.20 -0.80,-4.36 -0.26,-4.40 0.26,-4.43 0.79,-4.33 1.32,-4.24 1.80,-4.02 2.29,-3.80 2.71,-3.47 3.14,-3.14 3.14,-3.14 L 3.14,-3.14 Z"></path></g><g transform="translate(33.18706419195337 119.41726234578665) rotate(0 0.00006214071129306831 0.00006214071130727916)" stroke="none"><path fill="#c92a2a" d="M 3.14,-3.14 Q 3.14,-3.14 3.55,-2.55 3.97,-1.97 4.18,-1.28 4.40,-0.59 4.38,0.11 4.36,0.83 4.11,1.51 3.86,2.18 3.41,2.74 2.96,3.30 2.36,3.69 1.75,4.07 1.05,4.25 0.36,4.42 -0.35,4.36 -1.07,4.30 -1.73,4.02 -2.39,3.74 -2.92,3.26 -3.46,2.78 -3.81,2.15 -4.16,1.53 -4.30,0.82 -4.43,0.11 -4.34,-0.59 -4.24,-1.30 -3.92,-1.94 -3.60,-2.59 -3.09,-3.09 -2.59,-3.60 -1.94,-3.92 -1.30,-4.24 -0.59,-4.34 0.12,-4.43 0.82,-4.30 1.53,-4.16 2.15,-3.81 2.78,-3.46 3.26,-2.92 3.74,-2.39 4.02,-1.73 4.31,-1.07 4.36,-0.35 4.42,0.36 4.25,1.05 4.07,1.75 3.69,2.36 3.30,2.96 2.74,3.41 2.18,3.86 1.51,4.11 0.83,4.36 0.11,4.38 -0.60,4.40 -1.28,4.18 -1.97,3.97 -2.55,3.55 -3.14,3.13 -3.14,3.14 -3.14,3.14 -3.47,2.71 -3.80,2.29 -4.02,1.80 -4.24,1.32 -4.33,0.79 -4.43,0.26 -4.40,-0.26 -4.36,-0.80 -4.20,-1.31 -4.04,-1.82 -3.77,-2.28 -3.49,-2.73 -3.11,-3.11 -2.73,-3.49 -2.28,-3.77 -1.82,-4.05 -1.31,-4.20 -0.80,-4.36 -0.26,-4.40 0.26,-4.43 0.79,-4.33 1.32,-4.24 1.80,-4.02 2.29,-3.80 2.71,-3.47 3.14,-3.14 3.14,-3.14 L 3.14,-3.14 Z"></path></g><g transform="translate(68.50439802709502 119.21957933724038) rotate(0 0.00006214071129306831 0.00006214071130727916)" stroke="none"><path fill="#087f5b" d="M 3.14,-3.14 Q 3.14,-3.14 3.55,-2.55 3.97,-1.97 4.18,-1.28 4.40,-0.59 4.38,0.11 4.36,0.83 4.11,1.51 3.86,2.18 3.41,2.74 2.96,3.30 2.36,3.69 1.75,4.07 1.05,4.25 0.36,4.42 -0.35,4.36 -1.07,4.30 -1.73,4.02 -2.39,3.74 -2.92,3.26 -3.46,2.78 -3.81,2.15 -4.16,1.53 -4.30,0.82 -4.43,0.11 -4.34,-0.59 -4.24,-1.30 -3.92,-1.94 -3.60,-2.59 -3.09,-3.09 -2.59,-3.60 -1.94,-3.92 -1.30,-4.24 -0.59,-4.34 0.12,-4.43 0.82,-4.30 1.53,-4.16 2.15,-3.81 2.78,-3.46 3.26,-2.92 3.74,-2.39 4.02,-1.73 4.31,-1.07 4.36,-0.35 4.42,0.36 4.25,1.05 4.07,1.75 3.69,2.36 3.30,2.96 2.74,3.41 2.18,3.86 1.51,4.11 0.83,4.36 0.11,4.38 -0.60,4.40 -1.28,4.18 -1.97,3.97 -2.55,3.55 -3.14,3.13 -3.14,3.14 -3.14,3.14 -3.47,2.71 -3.80,2.29 -4.02,1.80 -4.24,1.32 -4.33,0.79 -4.43,0.26 -4.40,-0.26 -4.36,-0.80 -4.20,-1.31 -4.04,-1.82 -3.77,-2.28 -3.49,-2.73 -3.11,-3.11 -2.73,-3.49 -2.28,-3.77 -1.82,-4.05 -1.31,-4.20 -0.80,-4.36 -0.26,-4.40 0.26,-4.43 0.79,-4.33 1.32,-4.24 1.80,-4.02 2.29,-3.80 2.71,-3.47 3.14,-3.14 3.14,-3.14 L 3.14,-3.14 Z"></path></g><g stroke-linecap="round"><g transform="translate(165.1966466944757 112.41174221828739) rotate(0 4.383223607014088 4.847544999922164)"><path d="M-0.9 -0.97 C0.79 0.69, 8.11 8.78, 9.66 10.66 M0.83 1.14 C2.44 2.37, 7.28 7, 8.95 8.76" stroke="#000000" stroke-width="1" fill="none"></path></g></g><mask></mask><g stroke-linecap="round"><g transform="translate(173.55428876019755 112.25852805708656) rotate(0 -4.155561940839107 4.706103168118162)"><path d="M-0.97 0.45 C-2.47 2.04, -7.04 7.29, -8.32 8.65 M0.73 -0.36 C-0.96 1.45, -7.36 8.13, -9.04 9.77" stroke="#000000" stroke-width="1" fill="none"></path></g></g><mask></mask><g stroke-linecap="round"><g transform="translate(197.62322500148116 109.15317927774642) rotate(0 0.15109895499415416 7.020233486643377)"><path d="M0 0 C0.05 2.34, 0.25 11.7, 0.3 14.04 M0 0 C0.05 2.34, 0.25 11.7, 0.3 14.04" stroke="#000000" stroke-width="1" fill="none"></path></g></g><mask></mask><g stroke-linecap="round"><g transform="translate(190.64333346884155 116.60861076182893) rotate(0 7.417051616021126 -0.22444796227279085)"><path d="M0 0 C2.47 -0.07, 12.36 -0.37, 14.83 -0.45 M0 0 C2.47 -0.07, 12.36 -0.37, 14.83 -0.45" stroke="#000000" stroke-width="1" fill="none"></path></g></g><mask></mask><g stroke-linecap="round" transform="translate(92.03602901422028 147.124508515667) rotate(0 196.1129883079683 17)"><path d="M9.25 0.71 L382.4 0.16 L386.03 1.62 L392.13 5.02 L394.04 24.23 L392 29.92 L385.25 34.05 L7.65 32.98 L0.96 33.32 L-1.72 23.94 L1.34 6.11 L1.51 3.97 L9.06 0.1" stroke="none" stroke-width="0" fill="#ced4da"></path><path d="M8.5 0 M8.5 0 C131.62 -0.2, 254.59 -1.49, 383.73 0 M8.5 0 C157.46 0.24, 306.61 0.58, 383.73 0 M383.73 0 C390.56 -1.76, 394.04 1.99, 392.23 8.5 M383.73 0 C389.61 -0.49, 393.08 2.51, 392.23 8.5 M392.23 8.5 C390.61 15.19, 391.07 20.12, 392.23 25.5 M392.23 8.5 C392.23 13.16, 392.6 18.14, 392.23 25.5 M392.23 25.5 C393.92 31.05, 387.57 32.28, 383.73 34 M392.23 25.5 C390.74 30.5, 391.24 33.63, 383.73 34 M383.73 34 C293.65 34.02, 202.77 34.09, 8.5 34 M383.73 34 C267.61 31.78, 151.91 32.91, 8.5 34 M8.5 34 C4.08 35.01, -1.82 30.64, 0 25.5 M8.5 34 C0.65 35.5, 1.39 30.01, 0 25.5 M0 25.5 C1.38 19.28, 1.33 11.64, 0 8.5 M0 25.5 C-0.69 21.38, -0.91 16.05, 0 8.5 M0 8.5 C0.87 4.49, 4.57 1.89, 8.5 0 M0 8.5 C1.32 2.25, 4.2 -1.07, 8.5 0" stroke="#000000" stroke-width="1" fill="none"></path></g><g stroke-linecap="round"><g transform="translate(23.128463430270813 158.78304237163752) rotate(89.99999999999994 8.57453536706214 4.597468082408767)"><path d="M0.1 -0.85 C1.72 0.95, 7.14 9.56, 10.2 10.02 C13.26 10.49, 17.24 3.26, 18.46 1.92 M-1.31 1.32 C0.18 2.81, 6.41 8.24, 9.59 8.04 C12.78 7.84, 16.47 1.48, 17.77 0.14" stroke="#000000" stroke-width="1" fill="none"></path></g></g><mask></mask><g stroke-linecap="round"><g transform="translate(38.02038779989539 172.53076777248316) rotate(90.26145384971288 -0.17160762628611792 -9.633435122787148)"><path d="M-0.85 0.65 C-0.79 -2.68, -0.64 -16.34, -0.44 -19.92 M0.9 -0.05 C0.9 -3.18, -1.13 -15, -1.25 -18.31" stroke="#000000" stroke-width="1" fill="none"></path></g></g><mask></mask><g stroke-linecap="round"><g transform="translate(69.39187715044295 156.86596940482218) rotate(270 9.794640671896559 5.105141046573664)"><path d="M0.65 0.26 C2.25 2.21, 6.87 10.56, 9.69 10.85 C12.51 11.13, 16.31 3.49, 17.56 1.97 M-0.46 -0.65 C0.98 1.07, 5.4 9.15, 8.82 9.3 C12.24 9.44, 18.72 1.83, 20.05 0.22" stroke="#000000" stroke-width="1" fill="none"></path></g></g><mask></mask><g stroke-linecap="round"><g transform="translate(70.50361331365116 174.13338353197707) rotate(90.26145384971288 -0.3339477117614251 -10.340558688460987)"><path d="M0.26 0.15 C0.47 -3.43, 0.36 -17.26, 0.39 -20.83 M-1.06 -0.82 C-0.84 -4.32, -0.21 -16.4, 0.01 -19.69" stroke="#000000" stroke-width="1" fill="none"></path></g></g><mask></mask><g stroke-linecap="round"><g transform="translate(502.2331404313843 151.44592721388017) rotate(0 12.03315314430506 -0.6384250939632068)"><path d="M0 0 C4.01 -0.21, 20.06 -1.06, 24.07 -1.28 M0 0 C4.01 -0.21, 20.06 -1.06, 24.07 -1.28" stroke="#000000" stroke-width="2" fill="none"></path></g></g><mask></mask><g stroke-linecap="round"><g transform="translate(501.7452387527708 160.87869300040643) rotate(0 11.33097032720525 -1.2343184257463236)"><path d="M0 0 C3.78 -0.41, 18.88 -2.06, 22.66 -2.47 M0 0 C3.78 -0.41, 18.88 -2.06, 22.66 -2.47" stroke="#000000" stroke-width="2" fill="none"></path></g></g><mask></mask><g stroke-linecap="round"><g transform="translate(502.2379951744549 168.1049780612667) rotate(0 11.33097032720525 -1.2343184257463236)"><path d="M0 0 C3.78 -0.41, 18.88 -2.06, 22.66 -2.47 M0 0 C3.78 -0.41, 18.88 -2.06, 22.66 -2.47" stroke="#000000" stroke-width="2" fill="none"></path></g></g><mask></mask><g stroke-linecap="round"><g transform="translate(11.771836229892642 178.94556639580742) rotate(0 264.605606593724 0.5284567111203984)"><path d="M1.14 -1.17 C89.11 -0.93, 441.21 0.47, 528.93 0.68 M0.28 0.83 C88.08 1.34, 440.77 2.2, 528.47 2.23" stroke="#000000" stroke-width="1" fill="none"></path></g></g><mask></mask><g stroke-linecap="round" transform="translate(98.03178631785363 152.8042449866051) rotate(0 5.331633375252068 5.331633375252096)"><path d="M1 2.19 C1 2.19, 1 2.19, 1 2.19 M1 2.19 C1 2.19, 1 2.19, 1 2.19 M0.74 8.59 C2.62 6.42, 4.5 4.25, 7.3 1.04 M0.74 8.59 C2.95 6.05, 5.16 3.5, 7.3 1.04 M3.75 11.21 C5.45 9.27, 7.14 7.32, 10.32 3.67 M3.75 11.21 C6.25 8.34, 8.75 5.47, 10.32 3.67" stroke="#c8c8c8" stroke-width="0.5" fill="none"></path><path d="M10.66 5.33 C10.66 5.64, 10.64 5.95, 10.58 6.26 C10.53 6.56, 10.45 6.87, 10.34 7.16 C10.24 7.45, 10.1 7.73, 9.95 8 C9.79 8.26, 9.61 8.52, 9.42 8.76 C9.22 9, 9 9.22, 8.76 9.42 C8.52 9.61, 8.26 9.79, 8 9.95 C7.73 10.1, 7.45 10.24, 7.16 10.34 C6.87 10.45, 6.56 10.53, 6.26 10.58 C5.95 10.64, 5.64 10.66, 5.33 10.66 C5.02 10.66, 4.71 10.64, 4.41 10.58 C4.1 10.53, 3.8 10.45, 3.51 10.34 C3.22 10.24, 2.93 10.1, 2.67 9.95 C2.4 9.79, 2.14 9.61, 1.9 9.42 C1.67 9.22, 1.45 9, 1.25 8.76 C1.05 8.52, 0.87 8.26, 0.71 8 C0.56 7.73, 0.43 7.45, 0.32 7.16 C0.22 6.87, 0.13 6.56, 0.08 6.26 C0.03 5.95, 0 5.64, 0 5.33 C0 5.02, 0.03 4.71, 0.08 4.41 C0.13 4.1, 0.22 3.8, 0.32 3.51 C0.43 3.22, 0.56 2.93, 0.71 2.67 C0.87 2.4, 1.05 2.14, 1.25 1.9 C1.45 1.67, 1.67 1.45, 1.9 1.25 C2.14 1.05, 2.4 0.87, 2.67 0.71 C2.93 0.56, 3.22 0.43, 3.51 0.32 C3.8 0.22, 4.1 0.13, 4.41 0.08 C4.71 0.03, 5.02 0, 5.33 0 C5.64 0, 5.95 0.03, 6.26 0.08 C6.56 0.13, 6.87 0.22, 7.16 0.32 C7.45 0.43, 7.73 0.56, 8 0.71 C8.26 0.87, 8.52 1.05, 8.76 1.25 C9 1.45, 9.22 1.67, 9.42 1.9 C9.61 2.14, 9.79 2.4, 9.95 2.67 C10.1 2.93, 10.24 3.22, 10.34 3.51 C10.45 3.8, 10.53 4.1, 10.58 4.41 C10.64 4.71, 10.65 5.18, 10.66 5.33 C10.68 5.49, 10.68 5.18, 10.66 5.33" stroke="#000000" stroke-width="1" fill="none"></path></g><g stroke-linecap="round"><g transform="translate(107.47563574150536 162.70205847809893) rotate(0 3.370508602170162 2.8068947517865013)"><path d="M0 0 C1.12 0.94, 5.62 4.68, 6.74 5.61 M0 0 C1.12 0.94, 5.62 4.68, 6.74 5.61" stroke="#000000" stroke-width="1" fill="none"></path></g></g><mask></mask><g transform="translate(500.10136479265634 10) rotate(0 286.61407470703125 21.6)"><text x="0" y="0" font-family="Virgil, Segoe UI Emoji" font-size="36px" fill="#000000" text-anchor="start" style="white-space: pre;" direction="ltr" dominant-baseline="text-before-edge">document.referer (HTTP header)</text></g><g transform="translate(116.15673106450413 147.03746436780352) rotate(0 138.5798339843751 12)"><text x="0" y="0" font-family="Virgil, Segoe UI Emoji" font-size="20px" fill="#000000" text-anchor="start" style="white-space: pre;" direction="ltr" dominant-baseline="text-before-edge">https://foo.com/index?id=123</text></g><g stroke-linecap="round"><g transform="translate(486.7400643978374 65.04571448510542) rotate(0 291.05272203142295 -0.4860849067568793)"><path d="M0.17 0.63 C97.38 0.55, 486.17 -1.41, 583.31 -1.6 M-1.21 -0.09 C95.82 0.06, 484.34 -0.68, 582.13 -0.5" stroke="#000000" stroke-width="1" fill="none"></path></g></g><mask></mask><g stroke-linecap="round" transform="translate(970.15499694819 111.3022203712725) rotate(0 265.01146942447167 174.0938513681785)"><path d="M-0.56 0.36 C141.2 -2.69, 280.81 -1.96, 530.16 -0.31 M-0.02 -0.3 C127.6 -1.68, 255.25 -1.89, 530.19 0.27 M529.14 -0.62 C529.39 90.51, 530.17 179.76, 529.08 348.99 M529.39 0.24 C530.79 76.14, 529.7 151.09, 529.38 347.64 M529.62 348.59 C394.43 349.31, 260.15 349.57, -0.64 348.32 M529.84 347.8 C369.17 348.18, 208.12 348.25, 0.23 347.95 M0.95 347.07 C1.56 226.22, 2.8 104.6, 0.44 -0.05 M0.17 347.9 C2.63 279.01, 1.69 209.04, -0.55 -0.02" stroke="#000000" stroke-width="1" fill="none"></path></g><g stroke-linecap="round" transform="translate(969.6322259855904 113.42532849989006) rotate(0 44.513839025712514 9.7791717052433)"><path d="M-1.33 -1.21 L90.26 1.01 L90.59 19.82 L1.75 17.6" stroke="none" stroke-width="0" fill="#ced4da"></path><path d="M0.9 1.18 C24.56 -0.98, 52.79 0.96, 88.25 -1.18 M-0.75 -0.52 C30.55 -0.87, 60.6 0.45, 89.71 -0.43 M88.1 -1.69 C90.59 5.77, 90.25 11.18, 90.23 17.94 M89.39 0.77 C89.49 5.23, 88.33 11.21, 88.21 19.11 M90.03 17.82 C60.83 18.9, 34.42 17.5, 0.33 19.63 M88.07 19.68 C55.61 18.89, 23.09 19.72, -0.59 20.07 M-1.67 19.48 C0.24 16.85, 1.01 11.27, -0.07 -1.95 M-0.43 20.3 C0.72 14.85, 0.38 10.68, -0.03 0.9" stroke="#000000" stroke-width="1" fill="none"></path></g><g stroke-linecap="round" transform="translate(1140.6574685610428 111.42505701196423) rotate(0 178.60262979129698 17)"><path d="M-1.21 1.23 L358.21 1.56 L357.47 35.75 L-1.96 32.32" stroke="none" stroke-width="0" fill="#ced4da"></path><path d="M0.75 -1.18 C139.1 -1.03, 280.46 -1.52, 356.45 0.55 M-0.33 -0.02 C134.73 1.36, 270.88 2.14, 356.93 0.14 M355.48 1.59 C356.44 11.6, 355.54 21.94, 355.55 34.22 M357.99 0.64 C356 6.74, 355.9 13.71, 356.75 34.04 M356.1 33.28 C223.43 34.84, 88.9 35.35, 0.05 34.86 M357.28 33.54 C245.18 31.46, 133.85 31.43, 0.32 33.55 M-0.08 34.25 C1.55 24.69, 0.42 13.23, -1.99 -1.88 M0.76 34.88 C-0.78 21.86, -0.93 8.61, 0.92 -0.67" stroke="#000000" stroke-width="1" fill="none"></path></g><g stroke-linecap="round"><g transform="translate(966.9839012362352 144.3635499375922) rotate(0 265.9480500320344 -0.6871080484715435)"><path d="M0.71 -1.11 C89.19 -1.58, 441.65 -2.02, 530.07 -2.3 M-0.38 0.93 C88.55 0.61, 443.78 -0.33, 532.28 -0.77" stroke="#000000" stroke-width="1" fill="none"></path></g></g><mask></mask><g transform="translate(1007.0047734037514 124.5190485290308) rotate(0 0.00006214071140675514 0.00006214071130727916)" stroke="none"><path fill="#e67700" d="M 3.14,-3.14 Q 3.14,-3.14 3.55,-2.55 3.97,-1.97 4.18,-1.28 4.40,-0.59 4.38,0.11 4.36,0.83 4.11,1.51 3.86,2.18 3.41,2.74 2.96,3.30 2.36,3.69 1.75,4.07 1.05,4.25 0.36,4.42 -0.35,4.36 -1.07,4.30 -1.73,4.02 -2.39,3.74 -2.92,3.26 -3.46,2.78 -3.81,2.15 -4.16,1.53 -4.30,0.82 -4.43,0.11 -4.34,-0.59 -4.24,-1.30 -3.92,-1.94 -3.60,-2.59 -3.09,-3.09 -2.59,-3.60 -1.94,-3.92 -1.30,-4.24 -0.59,-4.34 0.12,-4.43 0.82,-4.30 1.53,-4.16 2.15,-3.81 2.78,-3.46 3.26,-2.92 3.74,-2.39 4.02,-1.73 4.31,-1.07 4.36,-0.35 4.42,0.36 4.25,1.05 4.07,1.75 3.69,2.36 3.30,2.96 2.74,3.41 2.18,3.86 1.51,4.11 0.83,4.36 0.11,4.38 -0.60,4.40 -1.28,4.18 -1.97,3.97 -2.55,3.55 -3.14,3.13 -3.14,3.14 -3.14,3.14 -3.47,2.71 -3.80,2.29 -4.02,1.80 -4.24,1.32 -4.33,0.79 -4.43,0.26 -4.40,-0.26 -4.36,-0.80 -4.20,-1.31 -4.04,-1.82 -3.77,-2.28 -3.49,-2.73 -3.11,-3.11 -2.73,-3.49 -2.28,-3.77 -1.82,-4.05 -1.31,-4.20 -0.80,-4.36 -0.26,-4.40 0.26,-4.43 0.79,-4.33 1.32,-4.24 1.80,-4.02 2.29,-3.80 2.71,-3.47 3.14,-3.14 3.14,-3.14 L 3.14,-3.14 Z"></path></g><g transform="translate(988.5671874422521 124.782256717809) rotate(0 0.00006214071140675514 0.00006214071130727916)" stroke="none"><path fill="#c92a2a" d="M 3.14,-3.14 Q 3.14,-3.14 3.55,-2.55 3.97,-1.97 4.18,-1.28 4.40,-0.59 4.38,0.11 4.36,0.83 4.11,1.51 3.86,2.18 3.41,2.74 2.96,3.30 2.36,3.69 1.75,4.07 1.05,4.25 0.36,4.42 -0.35,4.36 -1.07,4.30 -1.73,4.02 -2.39,3.74 -2.92,3.26 -3.46,2.78 -3.81,2.15 -4.16,1.53 -4.30,0.82 -4.43,0.11 -4.34,-0.59 -4.24,-1.30 -3.92,-1.94 -3.60,-2.59 -3.09,-3.09 -2.59,-3.60 -1.94,-3.92 -1.30,-4.24 -0.59,-4.34 0.12,-4.43 0.82,-4.30 1.53,-4.16 2.15,-3.81 2.78,-3.46 3.26,-2.92 3.74,-2.39 4.02,-1.73 4.31,-1.07 4.36,-0.35 4.42,0.36 4.25,1.05 4.07,1.75 3.69,2.36 3.30,2.96 2.74,3.41 2.18,3.86 1.51,4.11 0.83,4.36 0.11,4.38 -0.60,4.40 -1.28,4.18 -1.97,3.97 -2.55,3.55 -3.14,3.13 -3.14,3.14 -3.14,3.14 -3.47,2.71 -3.80,2.29 -4.02,1.80 -4.24,1.32 -4.33,0.79 -4.43,0.26 -4.40,-0.26 -4.36,-0.80 -4.20,-1.31 -4.04,-1.82 -3.77,-2.28 -3.49,-2.73 -3.11,-3.11 -2.73,-3.49 -2.28,-3.77 -1.82,-4.05 -1.31,-4.20 -0.80,-4.36 -0.26,-4.40 0.26,-4.43 0.79,-4.33 1.32,-4.24 1.80,-4.02 2.29,-3.80 2.71,-3.47 3.14,-3.14 3.14,-3.14 L 3.14,-3.14 Z"></path></g><g transform="translate(1023.8845212773938 124.58457370926261) rotate(0 0.00006214071140675514 0.00006214071130727916)" stroke="none"><path fill="#087f5b" d="M 3.14,-3.14 Q 3.14,-3.14 3.55,-2.55 3.97,-1.97 4.18,-1.28 4.40,-0.59 4.38,0.11 4.36,0.83 4.11,1.51 3.86,2.18 3.41,2.74 2.96,3.30 2.36,3.69 1.75,4.07 1.05,4.25 0.36,4.42 -0.35,4.36 -1.07,4.30 -1.73,4.02 -2.39,3.74 -2.92,3.26 -3.46,2.78 -3.81,2.15 -4.16,1.53 -4.30,0.82 -4.43,0.11 -4.34,-0.59 -4.24,-1.30 -3.92,-1.94 -3.60,-2.59 -3.09,-3.09 -2.59,-3.60 -1.94,-3.92 -1.30,-4.24 -0.59,-4.34 0.12,-4.43 0.82,-4.30 1.53,-4.16 2.15,-3.81 2.78,-3.46 3.26,-2.92 3.74,-2.39 4.02,-1.73 4.31,-1.07 4.36,-0.35 4.42,0.36 4.25,1.05 4.07,1.75 3.69,2.36 3.30,2.96 2.74,3.41 2.18,3.86 1.51,4.11 0.83,4.36 0.11,4.38 -0.60,4.40 -1.28,4.18 -1.97,3.97 -2.55,3.55 -3.14,3.13 -3.14,3.14 -3.14,3.14 -3.47,2.71 -3.80,2.29 -4.02,1.80 -4.24,1.32 -4.33,0.79 -4.43,0.26 -4.40,-0.26 -4.36,-0.80 -4.20,-1.31 -4.04,-1.82 -3.77,-2.28 -3.49,-2.73 -3.11,-3.11 -2.73,-3.49 -2.28,-3.77 -1.82,-4.05 -1.31,-4.20 -0.80,-4.36 -0.26,-4.40 0.26,-4.43 0.79,-4.33 1.32,-4.24 1.80,-4.02 2.29,-3.80 2.71,-3.47 3.14,-3.14 3.14,-3.14 L 3.14,-3.14 Z"></path></g><g stroke-linecap="round"><g transform="translate(1120.576769944775 117.77673659030974) rotate(0 4.848668583226299 4.4965875667273)"><path d="M0.2 -0.47 C1.78 1.33, 6.85 8.98, 8.51 10.75 M-1.15 -1.76 C0.9 -0.33, 9.01 6.7, 10.85 8.9" stroke="#000000" stroke-width="1" fill="none"></path></g></g><mask></mask><g stroke-linecap="round"><g transform="translate(1128.9344120104968 117.62352242910892) rotate(0 -3.7060045029795674 4.844430859309966)"><path d="M-0.47 -0.71 C-1.84 0.99, -6.83 8.85, -8.22 10.4 M1.49 1.54 C0.01 2.9, -7.05 7.46, -8.9 8.77" stroke="#000000" stroke-width="1" fill="none"></path></g></g><mask></mask><g stroke-linecap="round"><g transform="translate(1153.00334825178 114.51817364976877) rotate(0 0.15109895499404047 7.020233486643377)"><path d="M0 0 C0.05 2.34, 0.25 11.7, 0.3 14.04 M0 0 C0.05 2.34, 0.25 11.7, 0.3 14.04" stroke="#000000" stroke-width="1" fill="none"></path></g></g><mask></mask><g stroke-linecap="round"><g transform="translate(1146.0234567191408 121.97360513385128) rotate(0 7.417051616021126 -0.22444796227279085)"><path d="M0 0 C2.47 -0.07, 12.36 -0.37, 14.83 -0.45 M0 0 C2.47 -0.07, 12.36 -0.37, 14.83 -0.45" stroke="#000000" stroke-width="1" fill="none"></path></g></g><mask></mask><g stroke-linecap="round" transform="translate(1047.4161522645197 152.48950288768935) rotate(0 196.1129883079684 11.577884047206595)"><path d="M4.61 0.87 L388.01 -0.1 L390.37 2.22 L392.17 15.53 L389.7 22.52 L387.81 22.3 L6.22 23.25 L0.1 20.76 L-1.72 18.96 L-0.17 4.5 L4.35 1.23" stroke="none" stroke-width="0" fill="#ced4da"></path><path d="M5.79 0 M5.79 0 C87.41 2.4, 172.3 2.73, 386.44 0 M5.79 0 C86.18 1.96, 167.61 2.68, 386.44 0 M386.44 0 C389.29 1, 390.49 0.81, 392.23 5.79 M386.44 0 C390.05 -0.54, 390.38 2.31, 392.23 5.79 M392.23 5.79 C391.77 8.19, 392.44 11.98, 392.23 17.37 M392.23 5.79 C391.82 9.26, 391.75 12.16, 392.23 17.37 M392.23 17.37 C393.69 19.52, 390.21 23.41, 386.44 23.16 M392.23 17.37 C394.3 22.42, 391.07 23.07, 386.44 23.16 M386.44 23.16 C310.5 24.3, 234.83 25.88, 5.79 23.16 M386.44 23.16 C298.67 21.8, 210.54 20.88, 5.79 23.16 M5.79 23.16 C3.16 24.16, 1.56 21.49, 0 17.37 M5.79 23.16 C3.94 20.9, -1.93 20.35, 0 17.37 M0 17.37 C-0.52 13.2, 0.46 11.01, 0 5.79 M0 17.37 C0.17 14.58, -0.25 11.49, 0 5.79 M0 5.79 C-0.47 3, 3.77 1.05, 5.79 0 M0 5.79 C-1.8 2.06, 3.13 0.65, 5.79 0" stroke="#000000" stroke-width="1" fill="none"></path></g><g stroke-linecap="round"><g transform="translate(978.50858668057 164.14803674365987) rotate(89.99999999999994 8.988986215839986 5.17716020138343)"><path d="M-0.06 -0.9 C1.34 0.57, 6.04 9.55, 8.92 9.73 C11.8 9.91, 15.57 1.53, 17.22 0.18 M-1.55 1.25 C0.2 2.83, 7.79 11.27, 11.31 11.25 C14.82 11.24, 18.2 3.11, 19.53 1.16" stroke="#000000" stroke-width="1" fill="none"></path></g></g><mask></mask><g stroke-linecap="round"><g transform="translate(993.4005110501946 177.8957621445055) rotate(90.26145384971288 -0.4311480201974973 -9.75177254858626)"><path d="M-0.9 -0.62 C-1.18 -4.14, -0.66 -18.01, -0.73 -21.17 M0.83 1.66 C0.31 -1.74, -1.15 -16.32, -1.7 -20.21" stroke="#000000" stroke-width="1" fill="none"></path></g></g><mask></mask><g stroke-linecap="round"><g transform="translate(1024.7720004007422 162.23096377684453) rotate(270 9.089595028214944 4.610103774552357)"><path d="M-0.62 -0.03 C0.79 1.64, 5.21 8.83, 8.45 9.11 C11.68 9.4, 17.24 2.99, 18.8 1.65 M1.25 -1.09 C3.03 0.8, 7.74 10.17, 10.58 10.31 C13.42 10.45, 17.09 1.07, 18.29 -0.26" stroke="#000000" stroke-width="1" fill="none"></path></g></g><mask></mask><g stroke-linecap="round"><g transform="translate(1025.88373656395 179.4983779039993) rotate(90.26145384971288 -0.24070372359915382 -10.25518267193543)"><path d="M-0.03 -1.1 C-0.11 -4.26, -1.37 -16.33, -1.35 -19.58 M-1.51 0.94 C-1.11 -2.53, 0.81 -18.03, 1.03 -21.45" stroke="#000000" stroke-width="1" fill="none"></path></g></g><mask></mask><g stroke-linecap="round"><g transform="translate(1457.6132636816835 156.81092158590252) rotate(0 12.03315314430506 -0.6384250939632068)"><path d="M0 0 C4.01 -0.21, 20.06 -1.06, 24.07 -1.28 M0 0 C4.01 -0.21, 20.06 -1.06, 24.07 -1.28" stroke="#000000" stroke-width="2" fill="none"></path></g></g><mask></mask><g stroke-linecap="round"><g transform="translate(1457.12536200307 166.24368737242878) rotate(0 11.33097032720525 -1.2343184257463236)"><path d="M0 0 C3.78 -0.41, 18.88 -2.06, 22.66 -2.47 M0 0 C3.78 -0.41, 18.88 -2.06, 22.66 -2.47" stroke="#000000" stroke-width="2" fill="none"></path></g></g><mask></mask><g stroke-linecap="round"><g transform="translate(1457.6181184247541 173.46997243328894) rotate(0 11.33097032720525 -1.2343184257463236)"><path d="M0 0 C3.78 -0.41, 18.88 -2.06, 22.66 -2.47 M0 0 C3.78 -0.41, 18.88 -2.06, 22.66 -2.47" stroke="#000000" stroke-width="2" fill="none"></path></g></g><mask></mask><g stroke-linecap="round"><g transform="translate(967.1519594801919 184.31056076782977) rotate(0 264.0370578102318 0.8869282907875089)"><path d="M0.82 -0.52 C88.98 -0.48, 440.55 0.6, 528.28 0.7 M-0.2 1.83 C87.87 2.03, 439.15 2.39, 527.46 2.27" stroke="#000000" stroke-width="1" fill="none"></path></g></g><mask></mask><g stroke-linecap="round" transform="translate(1053.4119095681524 158.16923935862735) rotate(0 5.331633375252068 5.331633375252096)"><path d="M1 2.19 C1 2.19, 1 2.19, 1 2.19 M1 2.19 C1 2.19, 1 2.19, 1 2.19 M0.74 8.59 C3.19 5.77, 5.64 2.94, 7.3 1.04 M0.74 8.59 C2.79 6.23, 4.84 3.86, 7.3 1.04 M3.75 11.21 C5.75 8.92, 7.75 6.62, 10.32 3.67 M3.75 11.21 C6.2 8.4, 8.65 5.58, 10.32 3.67" stroke="#c8c8c8" stroke-width="0.5" fill="none"></path><path d="M10.66 5.33 C10.66 5.64, 10.64 5.95, 10.58 6.26 C10.53 6.56, 10.45 6.87, 10.34 7.16 C10.24 7.45, 10.1 7.73, 9.95 8 C9.79 8.26, 9.61 8.52, 9.42 8.76 C9.22 9, 9 9.22, 8.76 9.42 C8.52 9.61, 8.26 9.79, 8 9.95 C7.73 10.1, 7.45 10.24, 7.16 10.34 C6.87 10.45, 6.56 10.53, 6.26 10.58 C5.95 10.64, 5.64 10.66, 5.33 10.66 C5.02 10.66, 4.71 10.64, 4.41 10.58 C4.1 10.53, 3.8 10.45, 3.51 10.34 C3.22 10.24, 2.93 10.1, 2.67 9.95 C2.4 9.79, 2.14 9.61, 1.9 9.42 C1.67 9.22, 1.45 9, 1.25 8.76 C1.05 8.52, 0.87 8.26, 0.71 8 C0.56 7.73, 0.43 7.45, 0.32 7.16 C0.22 6.87, 0.13 6.56, 0.08 6.26 C0.03 5.95, 0 5.64, 0 5.33 C0 5.02, 0.03 4.71, 0.08 4.41 C0.13 4.1, 0.22 3.8, 0.32 3.51 C0.43 3.22, 0.56 2.93, 0.71 2.67 C0.87 2.4, 1.05 2.14, 1.25 1.9 C1.45 1.67, 1.67 1.45, 1.9 1.25 C2.14 1.05, 2.4 0.87, 2.67 0.71 C2.93 0.56, 3.22 0.43, 3.51 0.32 C3.8 0.22, 4.1 0.13, 4.41 0.08 C4.71 0.03, 5.02 0, 5.33 0 C5.64 0, 5.95 0.03, 6.26 0.08 C6.56 0.13, 6.87 0.22, 7.16 0.32 C7.45 0.43, 7.73 0.56, 8 0.71 C8.26 0.87, 8.52 1.05, 8.76 1.25 C9 1.45, 9.22 1.67, 9.42 1.9 C9.61 2.14, 9.79 2.4, 9.95 2.67 C10.1 2.93, 10.24 3.22, 10.34 3.51 C10.45 3.8, 10.53 4.1, 10.58 4.41 C10.64 4.71, 10.65 5.18, 10.66 5.33 C10.68 5.49, 10.68 5.18, 10.66 5.33" stroke="#000000" stroke-width="1" fill="none"></path></g><g stroke-linecap="round"><g transform="translate(1062.8557589918044 168.06705285012129) rotate(0 3.370508602170048 2.8068947517865013)"><path d="M0 0 C1.12 0.94, 5.62 4.68, 6.74 5.61 M0 0 C1.12 0.94, 5.62 4.68, 6.74 5.61" stroke="#000000" stroke-width="1" fill="none"></path></g></g><mask></mask><g transform="translate(1071.5368543148031 152.40245873982587) rotate(0 79.34990692138672 12)"><text x="0" y="0" font-family="Virgil, Segoe UI Emoji" font-size="20px" fill="#000000" text-anchor="start" style="white-space: pre;" direction="ltr" dominant-baseline="text-before-edge">https://bob.com/</text></g><g stroke-linecap="round"><g transform="translate(133.68956225528723 298.2023052604237) rotate(0 144.46268565345076 -0.35102461422326314)"><path d="M-0.41 1 C47.63 1.18, 239.21 0.11, 287.1 -0.08 M1.57 0.48 C50.09 0.43, 241.4 -1.29, 289.34 -1.72" stroke="#364fc7" stroke-width="1" fill="none"></path></g></g><mask></mask><g stroke-linecap="round"><g transform="translate(588.6895622552872 274.2023052604237) rotate(0 183.3599387425511 2.7712066986980233)"><path d="M1 0.79 C62.26 1.71, 305.74 4.84, 366.65 5.38 M0.07 0.16 C61.3 0.75, 305.07 2.83, 366.05 3.63" stroke="#000000" stroke-width="1" fill="none"></path></g><g transform="translate(588.6895622552872 274.2023052604237) rotate(0 183.3599387425511 2.7712066986980233)"><path d="M339.07 14.68 C345.33 11.88, 349.43 9.15, 366.54 3.36 M336.83 14.41 C345.44 10.92, 353.26 8.43, 366.5 3.63" stroke="#000000" stroke-width="1" fill="none"></path></g><g transform="translate(588.6895622552872 274.2023052604237) rotate(0 183.3599387425511 2.7712066986980233)"><path d="M339.29 -5.84 C345.47 -4.01, 349.52 -2.1, 366.54 3.36 M337.05 -6.11 C345.64 -3.84, 353.4 -0.56, 366.5 3.63" stroke="#000000" stroke-width="1" fill="none"></path></g></g><mask></mask><g stroke-linecap="round"><g transform="translate(111.68956225528723 219.2023052604237) rotate(0 28.439963587108082 20.214051721775917)"><path d="M-0.26 0.51 C8.97 6.99, 45.57 32.88, 54.97 39.45 M1.8 -0.26 C11.44 6.32, 48.2 33.78, 57.14 40.69" stroke="#c92a2a" stroke-width="1" fill="none"></path></g><g transform="translate(111.68956225528723 219.2023052604237) rotate(0 28.439963587108082 20.214051721775917)"><path d="M29.32 30.15 C35.15 34.53, 43.49 35.53, 58.02 41.92 M28.87 31.85 C34.42 33.54, 41.67 36.34, 57.91 40.24" stroke="#c92a2a" stroke-width="1" fill="none"></path></g><g transform="translate(111.68956225528723 219.2023052604237) rotate(0 28.439963587108082 20.214051721775917)"><path d="M41.7 13.79 C44.34 22.45, 49.42 27.78, 58.02 41.92 M41.25 15.49 C44.08 20.84, 48.59 27.26, 57.91 40.24" stroke="#c92a2a" stroke-width="1" fill="none"></path></g></g><mask></mask><g stroke-linecap="round"><g transform="translate(440.6895622552872 213.2023052604237) rotate(0 -55.400941022485426 27.168665984743285)"><path d="M-0.03 0.82 C-18.37 9.68, -92.39 45.47, -110.77 54.13 M-1.5 0.21 C-19.4 8.68, -90.17 43.64, -108.47 52.6" stroke="#c92a2a" stroke-width="1" fill="none"></path></g><g transform="translate(440.6895622552872 213.2023052604237) rotate(0 -55.400941022485426 27.168665984743285)"><path d="M-86.33 29.66 C-90.65 35.6, -97.89 41.93, -110.44 52.27 M-87.01 30.71 C-93.45 38.48, -100.15 43.47, -107.58 52.91" stroke="#c92a2a" stroke-width="1" fill="none"></path></g><g transform="translate(440.6895622552872 213.2023052604237) rotate(0 -55.400941022485426 27.168665984743285)"><path d="M-77.27 48.08 C-83.93 49.57, -93.35 51.46, -110.44 52.27 M-77.96 49.13 C-87.05 51.35, -96.51 50.71, -107.58 52.91" stroke="#c92a2a" stroke-width="1" fill="none"></path></g></g><mask></mask><g transform="translate(663.6895622552872 219.60230526042375) rotate(0 70.68601989746094 21.60000000000001)"><text x="0" y="0" font-family="Virgil, Segoe UI Emoji" font-size="36px" fill="#000000" text-anchor="start" style="white-space: pre;" direction="ltr" dominant-baseline="text-before-edge">200 OK</text></g><g transform="translate(581.0035423578263 309.6023052604237) rotate(0 180.56834411621094 67.19999999999999)"><text x="0" y="0" font-family="Virgil, Segoe UI Emoji" font-size="16px" fill="#000000" text-anchor="start" style="white-space: pre;" direction="ltr" dominant-baseline="text-before-edge">200 OK</text><text x="0" y="19.2" font-family="Virgil, Segoe UI Emoji" font-size="16px" fill="#000000" text-anchor="start" style="white-space: pre;" direction="ltr" dominant-baseline="text-before-edge">[headers]</text><text x="0" y="38.4" font-family="Virgil, Segoe UI Emoji" font-size="16px" fill="#000000" text-anchor="start" style="white-space: pre;" direction="ltr" dominant-baseline="text-before-edge"></text><text x="0" y="57.599999999999994" font-family="Virgil, Segoe UI Emoji" font-size="16px" fill="#000000" text-anchor="start" style="white-space: pre;" direction="ltr" dominant-baseline="text-before-edge">document.referer=https://foo.com/index?id=123</text><text x="0" y="76.8" font-family="Virgil, Segoe UI Emoji" font-size="16px" fill="#000000" text-anchor="start" style="white-space: pre;" direction="ltr" dominant-baseline="text-before-edge"></text><text x="0" y="96" font-family="Virgil, Segoe UI Emoji" font-size="16px" fill="#000000" text-anchor="start" style="white-space: pre;" direction="ltr" dominant-baseline="text-before-edge">[headers]</text><text x="0" y="115.19999999999999" font-family="Virgil, Segoe UI Emoji" font-size="16px" fill="#000000" text-anchor="start" style="white-space: pre;" direction="ltr" dominant-baseline="text-before-edge"></text></g><g stroke-linecap="round" transform="translate(555.6895622552872 357.2023052604237) rotate(0 201.5 18.5)"><path d="M0.96 0.35 C119.97 2.35, 243.24 2.79, 404.02 0.32 M402.45 0.94 C400.87 11.58, 403.28 23.7, 402.19 37.56 M403.61 37.38 C308.88 36.58, 213.8 37.87, -0.65 37.41 M-0.77 38.3 C1.97 26.13, 1.8 18.01, 0.72 0.52" stroke="#c92a2a" stroke-width="4.5" fill="none" stroke-dasharray="1.5 10"></path></g></svg>