<svg version="1.1" xmlns="http://www.w3.org/2000/svg" viewBox="0 0 1602.0403952837132 486.9966381461659" width="1602.0403952837132" height="486.9966381461659">
  <!-- svg-source:excalidraw -->
  
  <defs>
    <style class="style-fonts">
      @font-face {
        font-family: "Virgil";
        src: url("https://excalidraw.com/Virgil.woff2");
      }
      @font-face {
        font-family: "Cascadia";
        src: url("https://excalidraw.com/Cascadia.woff2");
      }
    </style>
  </defs>
  <g transform="translate(927.9638242792362 10) rotate(0 57.40202331542969 21.6)"><text x="0" y="0" font-family="Virgil, Segoe UI Emoji" font-size="36px" fill="#000000" text-anchor="start" style="white-space: pre;" direction="ltr" dominant-baseline="text-before-edge">ETags</text></g><g stroke-linecap="round"><g transform="translate(828.6025238844172 62.04571448510542) rotate(0 173.55272203142295 0.7015061701368523)"><path d="M0.17 0.63 C58.22 0.88, 290.34 0.25, 348.31 0.4 M-1.21 -0.09 C56.65 0.39, 288.51 0.98, 347.13 1.5" stroke="#000000" stroke-width="1" fill="none"></path></g></g><mask></mask><g transform="translate(192.12473422412268 195.48163223609924) rotate(0 94.39295196533203 17.400000000000006)"><text x="0" y="0" font-family="Virgil, Segoe UI Emoji" font-size="29.95730247879029px" fill="#a61e4d" text-anchor="start" style="white-space: pre;" direction="ltr" dominant-baseline="text-before-edge">Cache State</text></g><g stroke-linecap="round"><g transform="translate(175.7704802333251 234.12084258603647) rotate(0 104.45677862599348 0.8236201758185473)"><path d="M-0.07 -0.75 C35.07 -0.25, 175.6 2.05, 210.48 2.4 M-1.57 1.47 C33.55 1.69, 175.11 0.53, 210.09 0.7" stroke="#000000" stroke-width="1" fill="none"></path></g></g><mask></mask><g stroke-linecap="round" transform="translate(1062.0174564347699 94.3022203712725) rotate(0 265.01146942447167 174.0938513681785)"><path d="M-0.56 0.36 C141.2 -2.69, 280.81 -1.96, 530.16 -0.31 M-0.02 -0.3 C127.6 -1.68, 255.25 -1.89, 530.19 0.27 M529.14 -0.62 C529.39 90.51, 530.17 179.76, 529.08 348.99 M529.39 0.24 C530.79 76.14, 529.7 151.09, 529.38 347.64 M529.62 348.59 C394.43 349.31, 260.15 349.57, -0.64 348.32 M529.84 347.8 C369.17 348.18, 208.12 348.25, 0.23 347.95 M0.95 347.07 C1.56 226.22, 2.8 104.6, 0.44 -0.05 M0.17 347.9 C2.63 279.01, 1.69 209.04, -0.55 -0.02" stroke="#000000" stroke-width="1" fill="none"></path></g><g stroke-linecap="round" transform="translate(1061.4946854721702 96.42532849989006) rotate(0 44.513839025712514 9.7791717052433)"><path d="M-1.33 -1.21 L90.26 1.01 L90.59 19.82 L1.75 17.6" stroke="none" stroke-width="0" fill="#ced4da"></path><path d="M0.9 1.18 C24.56 -0.98, 52.79 0.96, 88.25 -1.18 M-0.75 -0.52 C30.55 -0.87, 60.6 0.45, 89.71 -0.43 M88.1 -1.69 C90.59 5.77, 90.25 11.18, 90.23 17.94 M89.39 0.77 C89.49 5.23, 88.33 11.21, 88.21 19.11 M90.03 17.82 C60.83 18.9, 34.42 17.5, 0.33 19.63 M88.07 19.68 C55.61 18.89, 23.09 19.72, -0.59 20.07 M-1.67 19.48 C0.24 16.85, 1.01 11.27, -0.07 -1.95 M-0.43 20.3 C0.72 14.85, 0.38 10.68, -0.03 0.9" stroke="#000000" stroke-width="1" fill="none"></path></g><g stroke-linecap="round" transform="translate(1232.5199280476227 94.42505701196423) rotate(0 178.60262979129698 11.648900422123916)"><path d="M-1.21 1.23 L358.21 1.56 L357.47 25.05 L-1.96 21.62" stroke="none" stroke-width="0" fill="#ced4da"></path><path d="M0.75 -1.18 C139.1 -1.03, 280.46 -1.52, 356.45 0.55 M-0.33 -0.02 C134.73 1.36, 270.88 2.14, 356.93 0.14 M355.48 1.59 C356.51 8.34, 355.61 15.42, 355.55 23.52 M357.99 0.64 C356.1 4.45, 356 9.13, 356.75 23.34 M356.1 22.58 C223.43 24.14, 88.9 24.65, 0.05 24.16 M357.28 22.84 C245.18 20.76, 133.85 20.73, 0.32 22.84 M-0.08 23.55 C1.63 17.24, 0.5 9.04, -1.99 -1.88 M0.76 24.18 C-0.76 15.15, -0.9 5.89, 0.92 -0.67" stroke="#000000" stroke-width="1" fill="none"></path></g><g stroke-linecap="round"><g transform="translate(1058.846360722815 127.36354993759223) rotate(0 265.9480500320344 -0.6871080484715435)"><path d="M0.71 -1.11 C89.19 -1.58, 441.65 -2.02, 530.07 -2.3 M-0.38 0.93 C88.55 0.61, 443.78 -0.33, 532.28 -0.77" stroke="#000000" stroke-width="1" fill="none"></path></g></g><mask></mask><g transform="translate(1098.8672328903313 107.5190485290308) rotate(0 0.00006214071140675514 0.00006214071130727916)" stroke="none"><path fill="#e67700" d="M 3.14,-3.14 Q 3.14,-3.14 3.55,-2.55 3.97,-1.97 4.18,-1.28 4.40,-0.59 4.38,0.11 4.36,0.83 4.11,1.51 3.86,2.18 3.41,2.74 2.96,3.30 2.36,3.69 1.75,4.07 1.05,4.25 0.36,4.42 -0.35,4.36 -1.07,4.30 -1.73,4.02 -2.39,3.74 -2.92,3.26 -3.46,2.78 -3.81,2.15 -4.16,1.53 -4.30,0.82 -4.43,0.11 -4.34,-0.59 -4.24,-1.30 -3.92,-1.94 -3.60,-2.59 -3.09,-3.09 -2.59,-3.60 -1.94,-3.92 -1.30,-4.24 -0.59,-4.34 0.12,-4.43 0.82,-4.30 1.53,-4.16 2.15,-3.81 2.78,-3.46 3.26,-2.92 3.74,-2.39 4.02,-1.73 4.31,-1.07 4.36,-0.35 4.42,0.36 4.25,1.05 4.07,1.75 3.69,2.36 3.30,2.96 2.74,3.41 2.18,3.86 1.51,4.11 0.83,4.36 0.11,4.38 -0.60,4.40 -1.28,4.18 -1.97,3.97 -2.55,3.55 -3.14,3.13 -3.14,3.14 -3.14,3.14 -3.47,2.71 -3.80,2.29 -4.02,1.80 -4.24,1.32 -4.33,0.79 -4.43,0.26 -4.40,-0.26 -4.36,-0.80 -4.20,-1.31 -4.04,-1.82 -3.77,-2.28 -3.49,-2.73 -3.11,-3.11 -2.73,-3.49 -2.28,-3.77 -1.82,-4.05 -1.31,-4.20 -0.80,-4.36 -0.26,-4.40 0.26,-4.43 0.79,-4.33 1.32,-4.24 1.80,-4.02 2.29,-3.80 2.71,-3.47 3.14,-3.14 3.14,-3.14 L 3.14,-3.14 Z"></path></g><g transform="translate(1080.429646928832 107.782256717809) rotate(0 0.00006214071140675514 0.00006214071130727916)" stroke="none"><path fill="#c92a2a" d="M 3.14,-3.14 Q 3.14,-3.14 3.55,-2.55 3.97,-1.97 4.18,-1.28 4.40,-0.59 4.38,0.11 4.36,0.83 4.11,1.51 3.86,2.18 3.41,2.74 2.96,3.30 2.36,3.69 1.75,4.07 1.05,4.25 0.36,4.42 -0.35,4.36 -1.07,4.30 -1.73,4.02 -2.39,3.74 -2.92,3.26 -3.46,2.78 -3.81,2.15 -4.16,1.53 -4.30,0.82 -4.43,0.11 -4.34,-0.59 -4.24,-1.30 -3.92,-1.94 -3.60,-2.59 -3.09,-3.09 -2.59,-3.60 -1.94,-3.92 -1.30,-4.24 -0.59,-4.34 0.12,-4.43 0.82,-4.30 1.53,-4.16 2.15,-3.81 2.78,-3.46 3.26,-2.92 3.74,-2.39 4.02,-1.73 4.31,-1.07 4.36,-0.35 4.42,0.36 4.25,1.05 4.07,1.75 3.69,2.36 3.30,2.96 2.74,3.41 2.18,3.86 1.51,4.11 0.83,4.36 0.11,4.38 -0.60,4.40 -1.28,4.18 -1.97,3.97 -2.55,3.55 -3.14,3.13 -3.14,3.14 -3.14,3.14 -3.47,2.71 -3.80,2.29 -4.02,1.80 -4.24,1.32 -4.33,0.79 -4.43,0.26 -4.40,-0.26 -4.36,-0.80 -4.20,-1.31 -4.04,-1.82 -3.77,-2.28 -3.49,-2.73 -3.11,-3.11 -2.73,-3.49 -2.28,-3.77 -1.82,-4.05 -1.31,-4.20 -0.80,-4.36 -0.26,-4.40 0.26,-4.43 0.79,-4.33 1.32,-4.24 1.80,-4.02 2.29,-3.80 2.71,-3.47 3.14,-3.14 3.14,-3.14 L 3.14,-3.14 Z"></path></g><g transform="translate(1115.7469807639736 107.58457370926261) rotate(0 0.00006214071140675514 0.00006214071130727916)" stroke="none"><path fill="#087f5b" d="M 3.14,-3.14 Q 3.14,-3.14 3.55,-2.55 3.97,-1.97 4.18,-1.28 4.40,-0.59 4.38,0.11 4.36,0.83 4.11,1.51 3.86,2.18 3.41,2.74 2.96,3.30 2.36,3.69 1.75,4.07 1.05,4.25 0.36,4.42 -0.35,4.36 -1.07,4.30 -1.73,4.02 -2.39,3.74 -2.92,3.26 -3.46,2.78 -3.81,2.15 -4.16,1.53 -4.30,0.82 -4.43,0.11 -4.34,-0.59 -4.24,-1.30 -3.92,-1.94 -3.60,-2.59 -3.09,-3.09 -2.59,-3.60 -1.94,-3.92 -1.30,-4.24 -0.59,-4.34 0.12,-4.43 0.82,-4.30 1.53,-4.16 2.15,-3.81 2.78,-3.46 3.26,-2.92 3.74,-2.39 4.02,-1.73 4.31,-1.07 4.36,-0.35 4.42,0.36 4.25,1.05 4.07,1.75 3.69,2.36 3.30,2.96 2.74,3.41 2.18,3.86 1.51,4.11 0.83,4.36 0.11,4.38 -0.60,4.40 -1.28,4.18 -1.97,3.97 -2.55,3.55 -3.14,3.13 -3.14,3.14 -3.14,3.14 -3.47,2.71 -3.80,2.29 -4.02,1.80 -4.24,1.32 -4.33,0.79 -4.43,0.26 -4.40,-0.26 -4.36,-0.80 -4.20,-1.31 -4.04,-1.82 -3.77,-2.28 -3.49,-2.73 -3.11,-3.11 -2.73,-3.49 -2.28,-3.77 -1.82,-4.05 -1.31,-4.20 -0.80,-4.36 -0.26,-4.40 0.26,-4.43 0.79,-4.33 1.32,-4.24 1.80,-4.02 2.29,-3.80 2.71,-3.47 3.14,-3.14 3.14,-3.14 L 3.14,-3.14 Z"></path></g><g stroke-linecap="round"><g transform="translate(1212.4392294313548 100.77673659030974) rotate(0 4.848668583226299 4.4965875667273)"><path d="M0.2 -0.47 C1.78 1.33, 6.85 8.98, 8.51 10.75 M-1.15 -1.76 C0.9 -0.33, 9.01 6.7, 10.85 8.9" stroke="#000000" stroke-width="1" fill="none"></path></g></g><mask></mask><g stroke-linecap="round"><g transform="translate(1220.7968714970766 100.62352242910892) rotate(0 -3.7060045029795674 4.844430859309966)"><path d="M-0.47 -0.71 C-1.84 0.99, -6.83 8.85, -8.22 10.4 M1.49 1.54 C0.01 2.9, -7.05 7.46, -8.9 8.77" stroke="#000000" stroke-width="1" fill="none"></path></g></g><mask></mask><g stroke-linecap="round"><g transform="translate(1244.8658077383598 97.51817364976877) rotate(0 0.15109895499404047 7.020233486643377)"><path d="M0 0 C0.05 2.34, 0.25 11.7, 0.3 14.04 M0 0 C0.05 2.34, 0.25 11.7, 0.3 14.04" stroke="#000000" stroke-width="1" fill="none"></path></g></g><mask></mask><g stroke-linecap="round"><g transform="translate(1237.8859162057206 104.97360513385128) rotate(0 7.417051616021126 -0.22444796227279085)"><path d="M0 0 C2.47 -0.07, 12.36 -0.37, 14.83 -0.45 M0 0 C2.47 -0.07, 12.36 -0.37, 14.83 -0.45" stroke="#000000" stroke-width="1" fill="none"></path></g></g><mask></mask><g stroke-linecap="round" transform="translate(1139.2786117510996 135.48950288768935) rotate(0 196.1129883079684 11.577884047206595)"><path d="M4.61 0.87 L388.01 -0.1 L390.37 2.22 L392.17 15.53 L389.7 22.52 L387.81 22.3 L6.22 23.25 L0.1 20.76 L-1.72 18.96 L-0.17 4.5 L4.35 1.23" stroke="none" stroke-width="0" fill="#ced4da"></path><path d="M5.79 0 M5.79 0 C87.41 2.4, 172.3 2.73, 386.44 0 M5.79 0 C86.18 1.96, 167.61 2.68, 386.44 0 M386.44 0 C389.29 1, 390.49 0.81, 392.23 5.79 M386.44 0 C390.05 -0.54, 390.38 2.31, 392.23 5.79 M392.23 5.79 C391.77 8.19, 392.44 11.98, 392.23 17.37 M392.23 5.79 C391.82 9.26, 391.75 12.16, 392.23 17.37 M392.23 17.37 C393.69 19.52, 390.21 23.41, 386.44 23.16 M392.23 17.37 C394.3 22.42, 391.07 23.07, 386.44 23.16 M386.44 23.16 C310.5 24.3, 234.83 25.88, 5.79 23.16 M386.44 23.16 C298.67 21.8, 210.54 20.88, 5.79 23.16 M5.79 23.16 C3.16 24.16, 1.56 21.49, 0 17.37 M5.79 23.16 C3.94 20.9, -1.93 20.35, 0 17.37 M0 17.37 C-0.52 13.2, 0.46 11.01, 0 5.79 M0 17.37 C0.17 14.58, -0.25 11.49, 0 5.79 M0 5.79 C-0.47 3, 3.77 1.05, 5.79 0 M0 5.79 C-1.8 2.06, 3.13 0.65, 5.79 0" stroke="#000000" stroke-width="1" fill="none"></path></g><g stroke-linecap="round"><g transform="translate(1070.3710461671499 147.14803674365987) rotate(89.99999999999994 8.988986215839986 5.17716020138343)"><path d="M-0.06 -0.9 C1.34 0.57, 6.04 9.55, 8.92 9.73 C11.8 9.91, 15.57 1.53, 17.22 0.18 M-1.55 1.25 C0.2 2.83, 7.79 11.27, 11.31 11.25 C14.82 11.24, 18.2 3.11, 19.53 1.16" stroke="#000000" stroke-width="1" fill="none"></path></g></g><mask></mask><g stroke-linecap="round"><g transform="translate(1085.2629705367744 160.8957621445055) rotate(90.26145384971288 -0.4311480201974973 -9.75177254858626)"><path d="M-0.9 -0.62 C-1.18 -4.14, -0.66 -18.01, -0.73 -21.17 M0.83 1.66 C0.31 -1.74, -1.15 -16.32, -1.7 -20.21" stroke="#000000" stroke-width="1" fill="none"></path></g></g><mask></mask><g stroke-linecap="round"><g transform="translate(1116.634459887322 145.23096377684453) rotate(270 9.089595028214944 4.610103774552357)"><path d="M-0.62 -0.03 C0.79 1.64, 5.21 8.83, 8.45 9.11 C11.68 9.4, 17.24 2.99, 18.8 1.65 M1.25 -1.09 C3.03 0.8, 7.74 10.17, 10.58 10.31 C13.42 10.45, 17.09 1.07, 18.29 -0.26" stroke="#000000" stroke-width="1" fill="none"></path></g></g><mask></mask><g stroke-linecap="round"><g transform="translate(1117.7461960505298 162.4983779039993) rotate(90.26145384971288 -0.24070372359915382 -10.25518267193543)"><path d="M-0.03 -1.1 C-0.11 -4.26, -1.37 -16.33, -1.35 -19.58 M-1.51 0.94 C-1.11 -2.53, 0.81 -18.03, 1.03 -21.45" stroke="#000000" stroke-width="1" fill="none"></path></g></g><mask></mask><g stroke-linecap="round"><g transform="translate(1549.4757231682634 139.81092158590252) rotate(0 12.03315314430506 -0.6384250939632068)"><path d="M0 0 C4.01 -0.21, 20.06 -1.06, 24.07 -1.28 M0 0 C4.01 -0.21, 20.06 -1.06, 24.07 -1.28" stroke="#000000" stroke-width="2" fill="none"></path></g></g><mask></mask><g stroke-linecap="round"><g transform="translate(1548.9878214896498 149.24368737242878) rotate(0 11.33097032720525 -1.2343184257463236)"><path d="M0 0 C3.78 -0.41, 18.88 -2.06, 22.66 -2.47 M0 0 C3.78 -0.41, 18.88 -2.06, 22.66 -2.47" stroke="#000000" stroke-width="2" fill="none"></path></g></g><mask></mask><g stroke-linecap="round"><g transform="translate(1549.480577911334 156.46997243328894) rotate(0 11.33097032720525 -1.2343184257463236)"><path d="M0 0 C3.78 -0.41, 18.88 -2.06, 22.66 -2.47 M0 0 C3.78 -0.41, 18.88 -2.06, 22.66 -2.47" stroke="#000000" stroke-width="2" fill="none"></path></g></g><mask></mask><g stroke-linecap="round"><g transform="translate(1059.0144189667717 167.31056076782977) rotate(0 264.0370578102318 0.8869282907875089)"><path d="M0.82 -0.52 C88.98 -0.48, 440.55 0.6, 528.28 0.7 M-0.2 1.83 C87.87 2.03, 439.15 2.39, 527.46 2.27" stroke="#000000" stroke-width="1" fill="none"></path></g></g><mask></mask><g stroke-linecap="round" transform="translate(1145.2743690547322 141.16923935862735) rotate(0 5.331633375252068 5.331633375252096)"><path d="M1 2.19 C1 2.19, 1 2.19, 1 2.19 M1 2.19 C1 2.19, 1 2.19, 1 2.19 M0.74 8.59 C3.19 5.77, 5.64 2.94, 7.3 1.04 M0.74 8.59 C2.79 6.23, 4.84 3.86, 7.3 1.04 M3.75 11.21 C5.75 8.92, 7.75 6.62, 10.32 3.67 M3.75 11.21 C6.2 8.4, 8.65 5.58, 10.32 3.67" stroke="#c8c8c8" stroke-width="0.5" fill="none"></path><path d="M10.66 5.33 C10.66 5.64, 10.64 5.95, 10.58 6.26 C10.53 6.56, 10.45 6.87, 10.34 7.16 C10.24 7.45, 10.1 7.73, 9.95 8 C9.79 8.26, 9.61 8.52, 9.42 8.76 C9.22 9, 9 9.22, 8.76 9.42 C8.52 9.61, 8.26 9.79, 8 9.95 C7.73 10.1, 7.45 10.24, 7.16 10.34 C6.87 10.45, 6.56 10.53, 6.26 10.58 C5.95 10.64, 5.64 10.66, 5.33 10.66 C5.02 10.66, 4.71 10.64, 4.41 10.58 C4.1 10.53, 3.8 10.45, 3.51 10.34 C3.22 10.24, 2.93 10.1, 2.67 9.95 C2.4 9.79, 2.14 9.61, 1.9 9.42 C1.67 9.22, 1.45 9, 1.25 8.76 C1.05 8.52, 0.87 8.26, 0.71 8 C0.56 7.73, 0.43 7.45, 0.32 7.16 C0.22 6.87, 0.13 6.56, 0.08 6.26 C0.03 5.95, 0 5.64, 0 5.33 C0 5.02, 0.03 4.71, 0.08 4.41 C0.13 4.1, 0.22 3.8, 0.32 3.51 C0.43 3.22, 0.56 2.93, 0.71 2.67 C0.87 2.4, 1.05 2.14, 1.25 1.9 C1.45 1.67, 1.67 1.45, 1.9 1.25 C2.14 1.05, 2.4 0.87, 2.67 0.71 C2.93 0.56, 3.22 0.43, 3.51 0.32 C3.8 0.22, 4.1 0.13, 4.41 0.08 C4.71 0.03, 5.02 0, 5.33 0 C5.64 0, 5.95 0.03, 6.26 0.08 C6.56 0.13, 6.87 0.22, 7.16 0.32 C7.45 0.43, 7.73 0.56, 8 0.71 C8.26 0.87, 8.52 1.05, 8.76 1.25 C9 1.45, 9.22 1.67, 9.42 1.9 C9.61 2.14, 9.79 2.4, 9.95 2.67 C10.1 2.93, 10.24 3.22, 10.34 3.51 C10.45 3.8, 10.53 4.1, 10.58 4.41 C10.64 4.71, 10.65 5.18, 10.66 5.33 C10.68 5.49, 10.68 5.18, 10.66 5.33" stroke="#000000" stroke-width="1" fill="none"></path></g><g stroke-linecap="round"><g transform="translate(1154.7182184783842 151.06705285012129) rotate(0 3.370508602170048 2.8068947517865013)"><path d="M0 0 C1.12 0.94, 5.62 4.68, 6.74 5.61 M0 0 C1.12 0.94, 5.62 4.68, 6.74 5.61" stroke="#000000" stroke-width="1" fill="none"></path></g></g><mask></mask><g transform="translate(1163.399313801383 135.40245873982587) rotate(0 79.34990692138672 12)"><text x="0" y="0" font-family="Virgil, Segoe UI Emoji" font-size="20px" fill="#000000" text-anchor="start" style="white-space: pre;" direction="ltr" dominant-baseline="text-before-edge">https://bob.com/</text></g><g stroke-linecap="round"><g transform="translate(546.5494761502619 270.3805252372167) rotate(0 52.42656804884882 26.828186308896704)" fill-rule="evenodd"><path d="M0 0 L-1.74 11 L-3.21 37.01 L-3.81 39.24 L-5.43 39.4 L-5.2 41.37 L-2.35 45.19 L0.36 47.39 L6.8 51.14 L12.84 53.45 L25.98 56.27 L35.19 56.99 L57.02 56.7 L72.79 54.85 L95.86 47.03 L104.76 41.54 L110.21 36.61 L103.63 17.77 L101.31 7.41 L99.51 3.25 L100.07 1.12 L98.16 0.42 L73.06 -1.27 L6.88 -3.4 L-0.39 -2.93 L-1.78 -1.89 L0 0" stroke="none" stroke-width="0" fill="#8a6e63" fill-rule="evenodd"></path><path d="M0 0 C-0.12 0.52, -0.51 2.04, -0.69 3.13 C-0.88 4.21, -0.94 5.19, -1.11 6.5 C-1.29 7.82, -1.56 9.3, -1.74 11 C-1.92 12.7, -2.07 14.61, -2.19 16.7 C-2.32 18.78, -2.39 21.29, -2.49 23.51 C-2.58 25.73, -2.65 28.08, -2.75 30.01 C-2.85 31.94, -3.01 33.91, -3.09 35.07 C-3.17 36.24, -3.09 36.31, -3.21 37.01 C-3.33 37.7, -3.56 38.92, -3.81 39.24 C-4.06 39.56, -4.44 38.91, -4.71 38.93 C-4.98 38.96, -5.35 38.99, -5.43 39.4 C-5.51 39.8, -5.38 40.77, -5.2 41.37 C-5.02 41.97, -4.83 42.37, -4.36 43.01 C-3.89 43.64, -3.14 44.46, -2.35 45.19 C-1.57 45.92, -0.74 46.61, 0.36 47.39 C1.46 48.17, 3.18 49.25, 4.25 49.88 C5.33 50.5, 5.37 50.55, 6.8 51.14 C8.23 51.74, 10.68 52.78, 12.84 53.45 C15 54.13, 17.54 54.7, 19.73 55.17 C21.92 55.64, 23.4 55.97, 25.98 56.27 C28.55 56.57, 31.89 56.87, 35.19 56.99 C38.49 57.11, 42.12 57.04, 45.76 56.99 C49.4 56.94, 53.66 56.86, 57.02 56.7 C60.38 56.53, 63.3 56.3, 65.93 55.99 C68.56 55.68, 70.51 55.37, 72.79 54.85 C75.07 54.34, 77.63 53.47, 79.59 52.89 C81.55 52.31, 83.14 51.85, 84.57 51.37 C86 50.89, 87.18 50.4, 88.18 49.98 C89.18 49.56, 89.89 49.13, 90.58 48.84 C91.27 48.55, 91.43 48.55, 92.32 48.25 C93.2 47.95, 94.52 47.65, 95.86 47.03 C97.21 46.42, 98.91 45.5, 100.4 44.59 C101.88 43.67, 103.34 42.58, 104.76 41.54 C106.17 40.5, 107.97 39.17, 108.87 38.35 C109.78 37.53, 110.02 37.16, 110.21 36.61 C110.41 36.06, 110.29 35.72, 110.03 35.07 C109.77 34.42, 109.33 34.28, 108.67 32.71 C108.02 31.14, 106.94 28.15, 106.1 25.66 C105.26 23.17, 104.28 20.06, 103.63 17.77 C102.97 15.47, 102.85 14.29, 102.16 11.87 C101.48 9.45, 101.45 5.28, 99.51 3.25 C97.57 1.21, 105.95 0.79, 90.52 -0.32 C75.08 -1.42, 21.97 -3.45, 6.88 -3.4 C-8.2 -3.35, 1.15 -0.57, 0 0 M0 0 C-0.12 0.52, -0.51 2.04, -0.69 3.13 C-0.88 4.21, -0.94 5.19, -1.11 6.5 C-1.29 7.82, -1.56 9.3, -1.74 11 C-1.92 12.7, -2.07 14.61, -2.19 16.7 C-2.32 18.78, -2.39 21.29, -2.49 23.51 C-2.58 25.73, -2.65 28.08, -2.75 30.01 C-2.85 31.94, -3.01 33.91, -3.09 35.07 C-3.17 36.24, -3.09 36.31, -3.21 37.01 C-3.33 37.7, -3.56 38.92, -3.81 39.24 C-4.06 39.56, -4.44 38.91, -4.71 38.93 C-4.98 38.96, -5.35 38.99, -5.43 39.4 C-5.51 39.8, -5.38 40.77, -5.2 41.37 C-5.02 41.97, -4.83 42.37, -4.36 43.01 C-3.89 43.64, -3.14 44.46, -2.35 45.19 C-1.57 45.92, -0.74 46.61, 0.36 47.39 C1.46 48.17, 3.18 49.25, 4.25 49.88 C5.33 50.5, 5.37 50.55, 6.8 51.14 C8.23 51.74, 10.68 52.78, 12.84 53.45 C15 54.13, 17.54 54.7, 19.73 55.17 C21.92 55.64, 23.4 55.97, 25.98 56.27 C28.55 56.57, 31.89 56.87, 35.19 56.99 C38.49 57.11, 42.12 57.04, 45.76 56.99 C49.4 56.94, 53.66 56.86, 57.02 56.7 C60.38 56.53, 63.3 56.3, 65.93 55.99 C68.56 55.68, 70.51 55.37, 72.79 54.85 C75.07 54.34, 77.63 53.47, 79.59 52.89 C81.55 52.31, 83.14 51.85, 84.57 51.37 C86 50.89, 87.18 50.4, 88.18 49.98 C89.18 49.56, 89.89 49.13, 90.58 48.84 C91.27 48.55, 91.43 48.55, 92.32 48.25 C93.2 47.95, 94.52 47.65, 95.86 47.03 C97.21 46.42, 98.91 45.5, 100.4 44.59 C101.88 43.67, 103.34 42.58, 104.76 41.54 C106.17 40.5, 107.97 39.17, 108.87 38.35 C109.78 37.53, 110.02 37.16, 110.21 36.61 C110.41 36.06, 110.29 35.72, 110.03 35.07 C109.77 34.42, 109.33 34.28, 108.67 32.71 C108.02 31.14, 106.94 28.15, 106.1 25.66 C105.26 23.17, 104.28 20.06, 103.63 17.77 C102.97 15.47, 102.85 14.29, 102.16 11.87 C101.48 9.45, 101.45 5.28, 99.51 3.25 C97.57 1.21, 105.95 0.79, 90.52 -0.32 C75.08 -1.42, 21.97 -3.45, 6.88 -3.4 C-8.2 -3.35, 1.15 -0.57, 0 0" stroke="#8a6e63" stroke-width="2" fill="none"></path></g></g><mask></mask><g stroke-linecap="round"><g transform="translate(567.8089540368878 252.84661159145446) rotate(0 41.87598533869175 8.658958649408277)" fill-rule="evenodd"><path d="M0 0 L13.55 -3.96 L25.84 -5.41 L53.55 -7.35 L64.14 -7.13 L73.39 -5.24 L80.19 -2.31 L86.46 2.09 L89.26 5.5 L88.97 7.4 L81.93 14.74 L80.14 18.82 L79.81 22.92 L78.7 24.08 L72.58 21.74 L64.03 20.24 L52.01 19.42 L39.68 19.88 L7.3 24.49 L1.64 24.43 L-1.79 21.53 L-4.45 16.13 L-5.67 9.16 L-5.09 3.59 L-3.65 1.75 L0 0" stroke="none" stroke-width="0" fill="#ac9a90" fill-rule="evenodd"></path><path d="M0 0 C0.9 -0.32, 3.12 -1.24, 5.38 -1.9 C7.63 -2.56, 10.14 -3.37, 13.55 -3.96 C16.97 -4.54, 21.59 -4.96, 25.84 -5.41 C30.09 -5.85, 34.41 -6.33, 39.03 -6.65 C43.65 -6.97, 49.37 -7.27, 53.55 -7.35 C57.74 -7.43, 60.84 -7.48, 64.14 -7.13 C67.45 -6.78, 70.71 -6.04, 73.39 -5.24 C76.06 -4.44, 78.01 -3.53, 80.19 -2.31 C82.37 -1.09, 84.94 0.78, 86.46 2.09 C87.97 3.39, 88.84 4.61, 89.26 5.5 C89.68 6.39, 89.28 6.87, 88.97 7.4 C88.66 7.94, 88.05 8.07, 87.39 8.71 C86.72 9.34, 85.51 10.55, 84.98 11.19 C84.44 11.84, 84.67 12.01, 84.16 12.6 C83.65 13.19, 82.6 13.71, 81.93 14.74 C81.26 15.78, 80.5 17.46, 80.14 18.82 C79.79 20.18, 80.05 22.05, 79.81 22.92 C79.57 23.8, 79.13 24.05, 78.7 24.08 C78.26 24.1, 78.2 23.47, 77.18 23.08 C76.16 22.69, 74.78 22.22, 72.58 21.74 C70.39 21.27, 67.45 20.63, 64.03 20.24 C60.6 19.85, 56.07 19.48, 52.01 19.42 C47.96 19.36, 44.36 19.5, 39.68 19.88 C35 20.26, 28.2 21.16, 23.93 21.72 C19.65 22.27, 16.8 22.76, 14.03 23.22 C11.26 23.69, 9.36 24.29, 7.3 24.49 C5.24 24.69, 3.16 24.92, 1.64 24.43 C0.13 23.94, -0.78 22.92, -1.79 21.53 C-2.81 20.15, -3.81 18.2, -4.45 16.13 C-5.1 14.07, -5.56 11.25, -5.67 9.16 C-5.78 7.07, -5.43 4.82, -5.09 3.59 C-4.76 2.35, -4.15 2.23, -3.65 1.75 C-3.15 1.27, -2.7 1, -2.09 0.71 C-1.48 0.42, -0.35 0.12, 0 0 M0 0 C0.9 -0.32, 3.12 -1.24, 5.38 -1.9 C7.63 -2.56, 10.14 -3.37, 13.55 -3.96 C16.97 -4.54, 21.59 -4.96, 25.84 -5.41 C30.09 -5.85, 34.41 -6.33, 39.03 -6.65 C43.65 -6.97, 49.37 -7.27, 53.55 -7.35 C57.74 -7.43, 60.84 -7.48, 64.14 -7.13 C67.45 -6.78, 70.71 -6.04, 73.39 -5.24 C76.06 -4.44, 78.01 -3.53, 80.19 -2.31 C82.37 -1.09, 84.94 0.78, 86.46 2.09 C87.97 3.39, 88.84 4.61, 89.26 5.5 C89.68 6.39, 89.28 6.87, 88.97 7.4 C88.66 7.94, 88.05 8.07, 87.39 8.71 C86.72 9.34, 85.51 10.55, 84.98 11.19 C84.44 11.84, 84.67 12.01, 84.16 12.6 C83.65 13.19, 82.6 13.71, 81.93 14.74 C81.26 15.78, 80.5 17.46, 80.14 18.82 C79.79 20.18, 80.05 22.05, 79.81 22.92 C79.57 23.8, 79.13 24.05, 78.7 24.08 C78.26 24.1, 78.2 23.47, 77.18 23.08 C76.16 22.69, 74.78 22.22, 72.58 21.74 C70.39 21.27, 67.45 20.63, 64.03 20.24 C60.6 19.85, 56.07 19.48, 52.01 19.42 C47.96 19.36, 44.36 19.5, 39.68 19.88 C35 20.26, 28.2 21.16, 23.93 21.72 C19.65 22.27, 16.8 22.76, 14.03 23.22 C11.26 23.69, 9.36 24.29, 7.3 24.49 C5.24 24.69, 3.16 24.92, 1.64 24.43 C0.13 23.94, -0.78 22.92, -1.79 21.53 C-2.81 20.15, -3.81 18.2, -4.45 16.13 C-5.1 14.07, -5.56 11.25, -5.67 9.16 C-5.78 7.07, -5.43 4.82, -5.09 3.59 C-4.76 2.35, -4.15 2.23, -3.65 1.75 C-3.15 1.27, -2.7 1, -2.09 0.71 C-1.48 0.42, -0.35 0.12, 0 0" stroke="#000000" stroke-width="2" fill="none"></path></g></g><mask></mask><g stroke-linecap="round"><g transform="translate(578.2131142921012 249.52112217558545) rotate(0 -21.19879330744118 0.4314894206477504)" fill-rule="evenodd"><path d="M0 0 L-32.31 -17.27 L-36.57 -20.97 L-38.44 -20.17 L-40.74 -16.62 L-42.15 -11.73 L-41.5 -2.19 L-39.24 5.06 L-37.93 14.77 L-36.34 18.04 L-33.43 21.35 L-26.78 20.27 L-20.81 20.51 L-14.05 22.01 L-16 12.23 L-15.26 6.45 L-11.37 3.69 L0 0" stroke="none" stroke-width="0" fill="#ac9a90" fill-rule="evenodd"></path><path d="M0 0 C-1.17 -0.67, -3.82 -2.38, -7.01 -4.05 C-10.19 -5.71, -15.33 -8.02, -19.1 -10.01 C-22.87 -11.99, -27.43 -14.73, -29.63 -15.94 C-31.83 -17.15, -31.15 -16.44, -32.31 -17.27 C-33.46 -18.11, -35.54 -20.49, -36.57 -20.97 C-37.59 -21.45, -37.74 -20.9, -38.44 -20.17 C-39.13 -19.45, -40.12 -18.03, -40.74 -16.62 C-41.36 -15.22, -41.89 -13.29, -42.15 -11.73 C-42.42 -10.17, -42.45 -8.84, -42.34 -7.25 C-42.23 -5.66, -42.02 -4.24, -41.5 -2.19 C-40.98 -0.14, -39.72 3.02, -39.24 5.06 C-38.76 7.1, -38.84 8.44, -38.62 10.06 C-38.4 11.68, -38.31 13.44, -37.93 14.77 C-37.55 16.1, -37.09 16.94, -36.34 18.04 C-35.59 19.13, -34.24 20.86, -33.43 21.35 C-32.62 21.84, -32.6 21.14, -31.49 20.96 C-30.38 20.78, -28.56 20.34, -26.78 20.27 C-25 20.19, -22.93 20.22, -20.81 20.51 C-18.68 20.8, -15.06 22.1, -14.05 22.01 C-13.03 21.91, -14.47 20.96, -14.73 19.93 C-15 18.91, -15.41 17.12, -15.63 15.83 C-15.84 14.55, -15.94 13.28, -16 12.23 C-16.06 11.19, -16.1 10.52, -15.98 9.56 C-15.85 8.59, -15.62 7.23, -15.26 6.45 C-14.89 5.67, -14.44 5.36, -13.79 4.9 C-13.14 4.43, -12.39 4.1, -11.37 3.69 C-10.34 3.27, -9.52 3.02, -7.63 2.41 C-5.73 1.79, -1.27 0.4, 0 0 M0 0 C-1.17 -0.67, -3.82 -2.38, -7.01 -4.05 C-10.19 -5.71, -15.33 -8.02, -19.1 -10.01 C-22.87 -11.99, -27.43 -14.73, -29.63 -15.94 C-31.83 -17.15, -31.15 -16.44, -32.31 -17.27 C-33.46 -18.11, -35.54 -20.49, -36.57 -20.97 C-37.59 -21.45, -37.74 -20.9, -38.44 -20.17 C-39.13 -19.45, -40.12 -18.03, -40.74 -16.62 C-41.36 -15.22, -41.89 -13.29, -42.15 -11.73 C-42.42 -10.17, -42.45 -8.84, -42.34 -7.25 C-42.23 -5.66, -42.02 -4.24, -41.5 -2.19 C-40.98 -0.14, -39.72 3.02, -39.24 5.06 C-38.76 7.1, -38.84 8.44, -38.62 10.06 C-38.4 11.68, -38.31 13.44, -37.93 14.77 C-37.55 16.1, -37.09 16.94, -36.34 18.04 C-35.59 19.13, -34.24 20.86, -33.43 21.35 C-32.62 21.84, -32.6 21.14, -31.49 20.96 C-30.38 20.78, -28.56 20.34, -26.78 20.27 C-25 20.19, -22.93 20.22, -20.81 20.51 C-18.68 20.8, -15.06 22.1, -14.05 22.01 C-13.03 21.91, -14.47 20.96, -14.73 19.93 C-15 18.91, -15.41 17.12, -15.63 15.83 C-15.84 14.55, -15.94 13.28, -16 12.23 C-16.06 11.19, -16.1 10.52, -15.98 9.56 C-15.85 8.59, -15.62 7.23, -15.26 6.45 C-14.89 5.67, -14.44 5.36, -13.79 4.9 C-13.14 4.43, -12.39 4.1, -11.37 3.69 C-10.34 3.27, -9.52 3.02, -7.63 2.41 C-5.73 1.79, -1.27 0.4, 0 0" stroke="#000000" stroke-width="2" fill="none"></path></g></g><mask></mask><g stroke-linecap="round"><g transform="translate(647.570767333656 276.01379935715136) rotate(0 -48.60300096182016 22.95482112815759)"><path d="M0 0 C0.17 0.85, 0.44 2.71, 1 5.08 C1.57 7.45, 2.33 10.77, 3.39 14.22 C4.45 17.66, 6.36 23.07, 7.36 25.75 C8.35 28.43, 9.42 28.98, 9.37 30.29 C9.32 31.59, 9.03 31.94, 7.05 33.59 C5.07 35.24, 0.33 38.6, -2.52 40.2 C-5.37 41.8, -7.62 42.24, -10.03 43.2 C-12.45 44.16, -12.8 44.77, -17 45.99 C-21.2 47.21, -26.91 49.62, -35.22 50.52 C-43.53 51.41, -58.71 51.61, -66.88 51.34 C-75.04 51.08, -79.21 50.09, -84.2 48.93 C-89.19 47.77, -93.57 45.98, -96.83 44.38 C-100.08 42.78, -102.16 40.74, -103.74 39.31 C-105.32 37.88, -105.87 36.79, -106.31 35.81 C-106.75 34.83, -106.56 33.83, -106.35 33.42 C-106.14 33.02, -105.18 33.13, -105.06 33.38 C-104.94 33.63, -105.68 35.05, -105.62 34.95 C-105.56 34.84, -104.96 33.75, -104.72 32.75 C-104.49 31.75, -104.36 31.23, -104.2 28.93 C-104.03 26.63, -103.95 22.58, -103.75 18.94 C-103.55 15.31, -103.28 10.43, -103 7.1 C-102.71 3.78, -102.32 1.08, -102.04 -1.03 C-101.75 -3.13, -101.42 -4.79, -101.29 -5.54 M0 0 C0.17 0.85, 0.44 2.71, 1 5.08 C1.57 7.45, 2.33 10.77, 3.39 14.22 C4.45 17.66, 6.36 23.07, 7.36 25.75 C8.35 28.43, 9.42 28.98, 9.37 30.29 C9.32 31.59, 9.03 31.94, 7.05 33.59 C5.07 35.24, 0.33 38.6, -2.52 40.2 C-5.37 41.8, -7.62 42.24, -10.03 43.2 C-12.45 44.16, -12.8 44.77, -17 45.99 C-21.2 47.21, -26.91 49.62, -35.22 50.52 C-43.53 51.41, -58.71 51.61, -66.88 51.34 C-75.04 51.08, -79.21 50.09, -84.2 48.93 C-89.19 47.77, -93.57 45.98, -96.83 44.38 C-100.08 42.78, -102.16 40.74, -103.74 39.31 C-105.32 37.88, -105.87 36.79, -106.31 35.81 C-106.75 34.83, -106.56 33.83, -106.35 33.42 C-106.14 33.02, -105.18 33.13, -105.06 33.38 C-104.94 33.63, -105.68 35.05, -105.62 34.95 C-105.56 34.84, -104.96 33.75, -104.72 32.75 C-104.49 31.75, -104.36 31.23, -104.2 28.93 C-104.03 26.63, -103.95 22.58, -103.75 18.94 C-103.55 15.31, -103.28 10.43, -103 7.1 C-102.71 3.78, -102.32 1.08, -102.04 -1.03 C-101.75 -3.13, -101.42 -4.79, -101.29 -5.54" stroke="#000000" stroke-width="2" fill="none"></path></g></g><mask></mask><g stroke-linecap="round"><g transform="translate(572.4724231401383 277.45630115106803) rotate(0 4.310405172985838 25.026229074740115)"><path d="M0 0 C0.25 0.42, 0.93 1.48, 1.48 2.51 C2.03 3.54, 2.9 5.09, 3.31 6.18 C3.71 7.27, 3.73 7.57, 3.91 9.06 C4.09 10.54, 4.37 13.15, 4.4 15.08 C4.42 17.01, 4.23 18.91, 4.07 20.63 C3.9 22.35, 3.58 24.05, 3.42 25.38 C3.26 26.71, 3.14 27.21, 3.11 28.61 C3.09 30.01, 3.01 31.65, 3.27 33.78 C3.53 35.91, 4.17 39.31, 4.65 41.41 C5.14 43.52, 5.52 44.96, 6.18 46.4 C6.85 47.84, 8.21 49.44, 8.62 50.05 M0 0 C0.25 0.42, 0.93 1.48, 1.48 2.51 C2.03 3.54, 2.9 5.09, 3.31 6.18 C3.71 7.27, 3.73 7.57, 3.91 9.06 C4.09 10.54, 4.37 13.15, 4.4 15.08 C4.42 17.01, 4.23 18.91, 4.07 20.63 C3.9 22.35, 3.58 24.05, 3.42 25.38 C3.26 26.71, 3.14 27.21, 3.11 28.61 C3.09 30.01, 3.01 31.65, 3.27 33.78 C3.53 35.91, 4.17 39.31, 4.65 41.41 C5.14 43.52, 5.52 44.96, 6.18 46.4 C6.85 47.84, 8.21 49.44, 8.62 50.05" stroke="#000000" stroke-width="2" fill="none"></path></g></g><mask></mask><g stroke-linecap="round"><g transform="translate(570.6367193564524 287.9993717308886) rotate(0 -4.296700226367534 4.076950104695243)" fill-rule="evenodd"><path d="M0 0 L-4.72 1.39 L-8.8 6.14 L-6.13 7.98 L-4.32 8.09 L-3.26 5.62 L-2.28 6.37 L-0.8 6.1 L0.17 4.45 L0 0" stroke="none" stroke-width="0" fill="#aac195" fill-rule="evenodd"></path><path d="M0 0 C-0.36 0.02, -1.35 -0.12, -2.13 0.11 C-2.92 0.34, -3.8 0.68, -4.72 1.39 C-5.63 2.09, -6.96 3.57, -7.64 4.36 C-8.32 5.16, -8.79 5.69, -8.8 6.14 C-8.81 6.59, -8.12 6.76, -7.68 7.07 C-7.23 7.38, -6.69 7.81, -6.13 7.98 C-5.57 8.15, -4.79 8.27, -4.32 8.09 C-3.84 7.92, -3.45 7.34, -3.28 6.92 C-3.1 6.51, -3.42 5.72, -3.26 5.62 C-3.09 5.53, -2.69 6.29, -2.28 6.37 C-1.87 6.45, -1.21 6.42, -0.8 6.1 C-0.39 5.78, 0.04 5.46, 0.17 4.45 C0.3 3.43, 0.03 0.74, 0 0 M0 0 C-0.36 0.02, -1.35 -0.12, -2.13 0.11 C-2.92 0.34, -3.8 0.68, -4.72 1.39 C-5.63 2.09, -6.96 3.57, -7.64 4.36 C-8.32 5.16, -8.79 5.69, -8.8 6.14 C-8.81 6.59, -8.12 6.76, -7.68 7.07 C-7.23 7.38, -6.69 7.81, -6.13 7.98 C-5.57 8.15, -4.79 8.27, -4.32 8.09 C-3.84 7.92, -3.45 7.34, -3.28 6.92 C-3.1 6.51, -3.42 5.72, -3.26 5.62 C-3.09 5.53, -2.69 6.29, -2.28 6.37 C-1.87 6.45, -1.21 6.42, -0.8 6.1 C-0.39 5.78, 0.04 5.46, 0.17 4.45 C0.3 3.43, 0.03 0.74, 0 0" stroke="#000000" stroke-width="2" fill="none"></path></g></g><mask></mask><g stroke-linecap="round"><g transform="translate(568.3875902857831 280.74951730571104) rotate(0 1.2846054589746245 3.6096047366759763)"><path d="M0 0 C0.18 0.22, 0.73 0.77, 1.08 1.3 C1.44 1.83, 1.87 2.68, 2.12 3.19 C2.37 3.7, 2.55 3.7, 2.57 4.37 C2.59 5.04, 2.31 6.74, 2.26 7.22 M0 0 C0.18 0.22, 0.73 0.77, 1.08 1.3 C1.44 1.83, 1.87 2.68, 2.12 3.19 C2.37 3.7, 2.55 3.7, 2.57 4.37 C2.59 5.04, 2.31 6.74, 2.26 7.22" stroke="#000000" stroke-width="2" fill="none"></path></g></g><mask></mask><g stroke-linecap="round"><g transform="translate(553.9817870382253 289.63027567674465) rotate(0 3.965793314443772 2.404777882806286)"><path d="M0 0 C0.19 0.22, 0.71 0.89, 1.14 1.32 C1.57 1.74, 2.03 2.16, 2.6 2.57 C3.16 2.98, 3.64 3.41, 4.53 3.78 C5.42 4.16, 7.36 4.64, 7.93 4.81 M0 0 C0.19 0.22, 0.71 0.89, 1.14 1.32 C1.57 1.74, 2.03 2.16, 2.6 2.57 C3.16 2.98, 3.64 3.41, 4.53 3.78 C5.42 4.16, 7.36 4.64, 7.93 4.81" stroke="#000000" stroke-width="2" fill="none"></path></g></g><mask></mask><g stroke-linecap="round"><g transform="translate(596.8949339602818 299.25232073274594) rotate(0 -5.934519335063328 -2.250229688706895)" fill-rule="evenodd"><path d="M0 0 L-3.79 1.74 L-5.3 1.17 L-6.2 -0.22 L-5.85 -2.11 L-8.1 -0.49 L-10.06 -0.76 L-11.27 -1.87 L-11.86 -4.52 L-9.42 -6.12 L-5.09 -5.48 L-2.3 -3.82 L0 0" stroke="none" stroke-width="0" fill="#aac195" fill-rule="evenodd"></path><path d="M0 0 C-0.29 0.16, -1.08 0.65, -1.71 0.94 C-2.34 1.23, -3.19 1.7, -3.79 1.74 C-4.38 1.78, -4.89 1.5, -5.3 1.17 C-5.7 0.85, -6.11 0.33, -6.2 -0.22 C-6.3 -0.76, -5.76 -1.95, -5.85 -2.11 C-5.93 -2.28, -6.32 -1.5, -6.7 -1.23 C-7.07 -0.96, -7.54 -0.57, -8.1 -0.49 C-8.66 -0.42, -9.53 -0.53, -10.06 -0.76 C-10.59 -0.99, -10.97 -1.24, -11.27 -1.87 C-11.57 -2.49, -11.93 -3.91, -11.86 -4.52 C-11.8 -5.12, -11.29 -5.22, -10.88 -5.49 C-10.47 -5.75, -10.01 -6, -9.42 -6.12 C-8.84 -6.23, -8.1 -6.29, -7.37 -6.19 C-6.65 -6.08, -5.94 -5.87, -5.09 -5.48 C-4.25 -5.09, -3.01 -4.41, -2.3 -3.82 C-1.59 -3.24, -1.21 -2.6, -0.83 -1.96 C-0.45 -1.33, -0.14 -0.33, 0 0 M0 0 C-0.29 0.16, -1.08 0.65, -1.71 0.94 C-2.34 1.23, -3.19 1.7, -3.79 1.74 C-4.38 1.78, -4.89 1.5, -5.3 1.17 C-5.7 0.85, -6.11 0.33, -6.2 -0.22 C-6.3 -0.76, -5.76 -1.95, -5.85 -2.11 C-5.93 -2.28, -6.32 -1.5, -6.7 -1.23 C-7.07 -0.96, -7.54 -0.57, -8.1 -0.49 C-8.66 -0.42, -9.53 -0.53, -10.06 -0.76 C-10.59 -0.99, -10.97 -1.24, -11.27 -1.87 C-11.57 -2.49, -11.93 -3.91, -11.86 -4.52 C-11.8 -5.12, -11.29 -5.22, -10.88 -5.49 C-10.47 -5.75, -10.01 -6, -9.42 -6.12 C-8.84 -6.23, -8.1 -6.29, -7.37 -6.19 C-6.65 -6.08, -5.94 -5.87, -5.09 -5.48 C-4.25 -5.09, -3.01 -4.41, -2.3 -3.82 C-1.59 -3.24, -1.21 -2.6, -0.83 -1.96 C-0.45 -1.33, -0.14 -0.33, 0 0" stroke="#000000" stroke-width="2" fill="none"></path></g></g><mask></mask><g stroke-linecap="round"><g transform="translate(584.9513891223583 294.78973778281) rotate(0 2.263287704935351 -6.466429854588)"><path d="M0 0 C-0.09 -0.08, -0.44 -0.12, -0.57 -0.49 C-0.7 -0.86, -0.81 -1.46, -0.78 -2.22 C-0.74 -2.98, -0.64 -4.29, -0.38 -5.05 C-0.13 -5.81, 0.34 -6.11, 0.74 -6.75 C1.13 -7.38, 1.55 -8.12, 1.99 -8.87 C2.42 -9.61, 2.8 -10.53, 3.35 -11.21 C3.91 -11.89, 4.98 -12.65, 5.31 -12.93 M0 0 C-0.09 -0.08, -0.44 -0.12, -0.57 -0.49 C-0.7 -0.86, -0.81 -1.46, -0.78 -2.22 C-0.74 -2.98, -0.64 -4.29, -0.38 -5.05 C-0.13 -5.81, 0.34 -6.11, 0.74 -6.75 C1.13 -7.38, 1.55 -8.12, 1.99 -8.87 C2.42 -9.61, 2.8 -10.53, 3.35 -11.21 C3.91 -11.89, 4.98 -12.65, 5.31 -12.93" stroke="#000000" stroke-width="2" fill="none"></path></g></g><mask></mask><g stroke-linecap="round"><g transform="translate(596.9112969637376 299.2405671281157) rotate(0 -0.41325153832428896 1.2315104570850508)"><path d="M0 0 C0.09 0.19, 0.41 0.74, 0.51 1.15 C0.62 1.55, 0.84 2.32, 0.64 2.44 C0.44 2.56, -0.33 2.14, -0.69 1.88 C-1.06 1.62, -1.65 1.21, -1.53 0.89 C-1.42 0.58, -0.26 0.15, 0 0 M0 0 C0.09 0.19, 0.41 0.74, 0.51 1.15 C0.62 1.55, 0.84 2.32, 0.64 2.44 C0.44 2.56, -0.33 2.14, -0.69 1.88 C-1.06 1.62, -1.65 1.21, -1.53 0.89 C-1.42 0.58, -0.26 0.15, 0 0" stroke="#000000" stroke-width="2" fill="none"></path></g></g><mask></mask><g stroke-linecap="round"><g transform="translate(597.1553133555967 301.6938157725955) rotate(0 6.261131169542978 -2.4259834078477525)"><path d="M0 0 C0.15 -0.01, 0.59 0.1, 0.91 -0.07 C1.24 -0.25, 1.55 -0.65, 1.94 -1.06 C2.33 -1.47, 2.76 -2.11, 3.23 -2.51 C3.71 -2.92, 4.29 -3.23, 4.81 -3.51 C5.33 -3.79, 5.74 -4.01, 6.34 -4.2 C6.93 -4.38, 7.75 -4.49, 8.38 -4.6 C9 -4.72, 9.59 -4.85, 10.11 -4.87 C10.63 -4.9, 11.09 -4.82, 11.49 -4.74 C11.89 -4.65, 12.35 -4.43, 12.52 -4.37 M0 0 C0.15 -0.01, 0.59 0.1, 0.91 -0.07 C1.24 -0.25, 1.55 -0.65, 1.94 -1.06 C2.33 -1.47, 2.76 -2.11, 3.23 -2.51 C3.71 -2.92, 4.29 -3.23, 4.81 -3.51 C5.33 -3.79, 5.74 -4.01, 6.34 -4.2 C6.93 -4.38, 7.75 -4.49, 8.38 -4.6 C9 -4.72, 9.59 -4.85, 10.11 -4.87 C10.63 -4.9, 11.09 -4.82, 11.49 -4.74 C11.89 -4.65, 12.35 -4.43, 12.52 -4.37" stroke="#000000" stroke-width="2" fill="none"></path></g></g><mask></mask><g stroke-linecap="round"><g transform="translate(647.3707435263136 254.8613430914537) rotate(0 4.133350530249913 0.7877055697989306)"><path d="M0 0 C0.61 0.05, 2.29 0.03, 3.67 0.3 C5.05 0.56, 7.5 1.36, 8.27 1.58 M0 0 C0.61 0.05, 2.29 0.03, 3.67 0.3 C5.05 0.56, 7.5 1.36, 8.27 1.58" stroke="#000000" stroke-width="2" fill="none"></path></g></g><mask></mask><g stroke-linecap="round"><g transform="translate(563.9625395699527 196.95900713306332) rotate(0 -18.279934749571225 16.649880241312218)" fill-rule="evenodd"><path d="M0 0 L-22.25 -1.35 L-30.42 -3.59 L-33.87 -3.11 L-36.23 -1.87 L-35.68 1.95 L-33.34 4.58 L-32.67 12.27 L-31.01 19.14 L-26.69 26.34 L-21.97 31.67 L-14.74 36.89 L-16.24 32.28 L-16.21 28.06 L-14.6 22.4 L-7.64 7.7 L0 0" stroke="none" stroke-width="0" fill="#aac195" fill-rule="evenodd"></path><path d="M0 0 C-0.25 -0.09, 0 -0.4, -1.5 -0.54 C-3 -0.69, -6.82 -0.8, -9 -0.86 C-11.18 -0.92, -12.4 -0.8, -14.61 -0.88 C-16.82 -0.96, -19.62 -0.9, -22.25 -1.35 C-24.89 -1.81, -28.09 -3.51, -30.42 -3.59 C-32.75 -3.68, -35.35 -2.8, -36.23 -1.87 C-37.11 -0.95, -35.99 1.01, -35.68 1.95 C-35.36 2.89, -34.74 3.35, -34.35 3.79 C-33.96 4.22, -33.57 3.81, -33.34 4.58 C-33.11 5.35, -33.06 7.12, -32.95 8.41 C-32.84 9.69, -32.82 11.11, -32.67 12.27 C-32.52 13.44, -32.3 14.26, -32.02 15.4 C-31.75 16.54, -31.9 17.32, -31.01 19.14 C-30.12 20.96, -28.2 24.25, -26.69 26.34 C-25.19 28.43, -23.61 30.11, -21.97 31.67 C-20.34 33.22, -18.06 34.8, -16.86 35.67 C-15.65 36.55, -14.98 36.96, -14.74 36.89 C-14.5 36.82, -15.18 36.01, -15.43 35.24 C-15.67 34.47, -16.11 33.48, -16.24 32.28 C-16.37 31.08, -16.31 29.27, -16.21 28.06 C-16.11 26.85, -15.9 25.99, -15.63 25.04 C-15.36 24.1, -15.07 23.46, -14.6 22.4 C-14.13 21.34, -13.5 20.05, -12.81 18.68 C-12.12 17.31, -11.1 15.52, -10.49 14.19 C-9.89 12.87, -9.66 11.81, -9.19 10.73 C-8.71 9.65, -8.35 8.75, -7.64 7.7 C-6.93 6.65, -6.05 5.59, -4.93 4.43 C-3.82 3.27, -1.78 1.48, -0.95 0.74 C-0.13 0, -0.16 0.12, 0 0 M0 0 C-0.25 -0.09, 0 -0.4, -1.5 -0.54 C-3 -0.69, -6.82 -0.8, -9 -0.86 C-11.18 -0.92, -12.4 -0.8, -14.61 -0.88 C-16.82 -0.96, -19.62 -0.9, -22.25 -1.35 C-24.89 -1.81, -28.09 -3.51, -30.42 -3.59 C-32.75 -3.68, -35.35 -2.8, -36.23 -1.87 C-37.11 -0.95, -35.99 1.01, -35.68 1.95 C-35.36 2.89, -34.74 3.35, -34.35 3.79 C-33.96 4.22, -33.57 3.81, -33.34 4.58 C-33.11 5.35, -33.06 7.12, -32.95 8.41 C-32.84 9.69, -32.82 11.11, -32.67 12.27 C-32.52 13.44, -32.3 14.26, -32.02 15.4 C-31.75 16.54, -31.9 17.32, -31.01 19.14 C-30.12 20.96, -28.2 24.25, -26.69 26.34 C-25.19 28.43, -23.61 30.11, -21.97 31.67 C-20.34 33.22, -18.06 34.8, -16.86 35.67 C-15.65 36.55, -14.98 36.96, -14.74 36.89 C-14.5 36.82, -15.18 36.01, -15.43 35.24 C-15.67 34.47, -16.11 33.48, -16.24 32.28 C-16.37 31.08, -16.31 29.27, -16.21 28.06 C-16.11 26.85, -15.9 25.99, -15.63 25.04 C-15.36 24.1, -15.07 23.46, -14.6 22.4 C-14.13 21.34, -13.5 20.05, -12.81 18.68 C-12.12 17.31, -11.1 15.52, -10.49 14.19 C-9.89 12.87, -9.66 11.81, -9.19 10.73 C-8.71 9.65, -8.35 8.75, -7.64 7.7 C-6.93 6.65, -6.05 5.59, -4.93 4.43 C-3.82 3.27, -1.78 1.48, -0.95 0.74 C-0.13 0, -0.16 0.12, 0 0" stroke="#000000" stroke-width="2" fill="none"></path></g></g><mask></mask><g stroke-linecap="round"><g transform="translate(532.9046576349479 200.14002214852303) rotate(0 10.57360782415526 3.9812520364829567)"><path d="M0 0 C0.35 0.08, 1.31 0.37, 2.12 0.49 C2.92 0.62, 3.93 0.51, 4.84 0.75 C5.76 1, 6.57 1.34, 7.62 1.97 C8.67 2.61, 10.18 3.82, 11.14 4.54 C12.11 5.26, 12.78 5.84, 13.42 6.3 C14.05 6.76, 14.33 7.02, 14.96 7.29 C15.59 7.56, 16.39 7.85, 17.19 7.94 C17.99 8.03, 19.09 7.83, 19.75 7.83 C20.41 7.82, 20.91 7.89, 21.15 7.9 M0 0 C0.35 0.08, 1.31 0.37, 2.12 0.49 C2.92 0.62, 3.93 0.51, 4.84 0.75 C5.76 1, 6.57 1.34, 7.62 1.97 C8.67 2.61, 10.18 3.82, 11.14 4.54 C12.11 5.26, 12.78 5.84, 13.42 6.3 C14.05 6.76, 14.33 7.02, 14.96 7.29 C15.59 7.56, 16.39 7.85, 17.19 7.94 C17.99 8.03, 19.09 7.83, 19.75 7.83 C20.41 7.82, 20.91 7.89, 21.15 7.9" stroke="#000000" stroke-width="2" fill="none"></path></g></g><mask></mask><g stroke-linecap="round"><g transform="translate(563.8234152898863 196.99809696662328) rotate(0 56.0809451916673 24.27866707729399)" fill-rule="evenodd"><path d="M0 0 L10.51 -5.3 L18.33 -6.14 L14.69 -2.34 L13.43 0.35 L15.92 -4.01 L19.37 -6.49 L26.23 -9.48 L36.91 -10.29 L50.02 -8.35 L55.88 -6.47 L61.8 -3.31 L57.55 -1.25 L61.09 -3.12 L64.38 -3.19 L69.87 -1.7 L79.21 6.16 L84.45 15.27 L92.4 19.69 L88.87 19.94 L95.32 20.8 L113.29 27.24 L124.33 29.52 L128.08 31.72 L128.27 34.33 L127.14 37 L122.06 41.83 L118.76 47.43 L114.82 50.82 L106.85 55.68 L96.96 58.82 L92.5 58.67 L79.02 51.19 L69.16 48.88 L59.39 48.43 L42.59 49.14 L14.22 52.53 L-13.96 37.27 L-15.65 34.12 L-16.06 27.46 L-15.18 23.71 L-7.05 7 L0 0" stroke="none" stroke-width="0" fill="#aac195" fill-rule="evenodd"></path><path d="M0 0 C0.35 -0.23, 1.31 -0.9, 2.08 -1.36 C2.85 -1.83, 3.7 -2.3, 4.63 -2.78 C5.55 -3.26, 6.64 -3.82, 7.62 -4.24 C8.6 -4.66, 9.22 -5, 10.51 -5.3 C11.8 -5.59, 14.06 -5.88, 15.36 -6.02 C16.66 -6.16, 18.19 -6.41, 18.33 -6.14 C18.48 -5.86, 16.86 -5, 16.25 -4.36 C15.64 -3.73, 15.16 -3.13, 14.69 -2.34 C14.22 -1.56, 13.47 0.27, 13.43 0.35 C13.4 0.42, 14.06 -1.17, 14.48 -1.9 C14.89 -2.62, 15.1 -3.24, 15.92 -4.01 C16.73 -4.77, 18.32 -5.86, 19.37 -6.49 C20.41 -7.13, 21.06 -7.33, 22.21 -7.82 C23.35 -8.32, 24.76 -9.07, 26.23 -9.48 C27.71 -9.89, 29.28 -10.14, 31.06 -10.27 C32.83 -10.41, 35.14 -10.42, 36.91 -10.29 C38.68 -10.16, 40.11 -9.71, 41.68 -9.47 C43.25 -9.24, 44.92 -9.07, 46.31 -8.89 C47.7 -8.7, 48.43 -8.75, 50.02 -8.35 C51.62 -7.94, 54.33 -7.04, 55.88 -6.47 C57.42 -5.9, 58.3 -5.46, 59.29 -4.93 C60.27 -4.41, 61.58 -3.63, 61.8 -3.31 C62.02 -2.99, 61.1 -3.19, 60.61 -3.02 C60.13 -2.84, 59.4 -2.58, 58.89 -2.28 C58.38 -1.99, 57.52 -1.24, 57.55 -1.25 C57.58 -1.27, 58.46 -2.05, 59.05 -2.36 C59.64 -2.68, 60.2 -2.98, 61.09 -3.12 C61.98 -3.25, 62.91 -3.43, 64.38 -3.19 C65.84 -2.96, 67.9 -2.73, 69.87 -1.7 C71.84 -0.67, 74.63 1.69, 76.19 3 C77.75 4.31, 78.15 4.82, 79.21 6.16 C80.28 7.5, 81.69 9.53, 82.57 11.05 C83.44 12.57, 83.91 14.49, 84.45 15.27 C84.99 16.05, 85.24 15.43, 85.82 15.73 C86.4 16.03, 87.34 16.72, 87.94 17.06 C88.54 17.41, 88.94 17.5, 89.41 17.8 C89.88 18.11, 90.25 18.56, 90.75 18.88 C91.24 19.19, 92.71 19.51, 92.4 19.69 C92.08 19.86, 88.86 19.88, 88.87 19.94 C88.89 20.01, 91.41 19.95, 92.49 20.09 C93.56 20.24, 93.74 20.34, 95.32 20.8 C96.91 21.26, 99.9 22.13, 102 22.84 C104.09 23.55, 106.6 24.61, 107.88 25.09 C109.17 25.56, 108.82 25.33, 109.72 25.69 C110.63 26.05, 112.23 26.86, 113.29 27.24 C114.35 27.63, 114.98 27.77, 116.08 28 C117.18 28.23, 118.51 28.36, 119.88 28.61 C121.26 28.86, 123.28 29.25, 124.33 29.52 C125.38 29.79, 125.58 29.85, 126.2 30.22 C126.83 30.59, 127.74 31.03, 128.08 31.72 C128.43 32.4, 128.42 33.45, 128.27 34.33 C128.11 35.21, 128.18 35.75, 127.14 37 C126.11 38.25, 123.04 40.71, 122.06 41.83 C121.07 42.95, 121.79 42.79, 121.24 43.72 C120.69 44.65, 119.83 46.25, 118.76 47.43 C117.69 48.61, 116.44 49.66, 114.82 50.82 C113.19 51.97, 110.34 53.53, 109.01 54.34 C107.69 55.15, 107.84 55.24, 106.85 55.68 C105.86 56.13, 104.73 56.5, 103.08 57.03 C101.43 57.55, 98.73 58.55, 96.96 58.82 C95.2 59.09, 93.43 58.83, 92.5 58.67 C91.57 58.52, 91.9 58.13, 91.38 57.87 C90.87 57.62, 90.12 57.52, 89.42 57.12 C88.72 56.72, 88.21 56.16, 87.19 55.48 C86.18 54.8, 84.7 53.74, 83.33 53.02 C81.97 52.31, 80.72 51.77, 79.02 51.19 C77.32 50.62, 74.76 49.96, 73.11 49.57 C71.47 49.19, 70.5 49.04, 69.16 48.88 C67.81 48.71, 66.66 48.66, 65.03 48.58 C63.4 48.51, 61.46 48.42, 59.39 48.43 C57.31 48.43, 55.39 48.51, 52.59 48.63 C49.8 48.75, 45.07 48.97, 42.59 49.14 C40.12 49.31, 40.67 49.34, 37.75 49.64 C34.82 49.93, 28.24 50.58, 25.05 50.91 C21.87 51.24, 20.44 51.37, 18.63 51.63 C16.83 51.9, 15.32 52.63, 14.22 52.53 C13.12 52.42, 13.2 51.71, 12.02 51.01 C10.85 50.31, 9.01 49.31, 7.14 48.35 C5.28 47.39, 2.78 46.17, 0.84 45.24 C-1.09 44.31, -2.73 43.67, -4.47 42.76 C-6.2 41.85, -8 40.69, -9.58 39.78 C-11.16 38.86, -13.04 37.96, -13.96 37.27 C-14.88 36.59, -14.83 36.2, -15.11 35.67 C-15.39 35.14, -15.48 34.91, -15.65 34.12 C-15.83 33.34, -16.1 32.08, -16.17 30.97 C-16.23 29.86, -16.23 28.67, -16.06 27.46 C-15.9 26.25, -15.74 25.15, -15.18 23.71 C-14.63 22.26, -13.45 20.18, -12.75 18.78 C-12.05 17.38, -11.49 16.38, -10.97 15.3 C-10.45 14.22, -9.96 13.11, -9.64 12.31 C-9.31 11.51, -9.48 11.38, -9.04 10.49 C-8.61 9.61, -7.86 8.13, -7.05 7 C-6.25 5.86, -5.38 4.85, -4.2 3.69 C-3.03 2.52, -0.7 0.61, 0 0 M0 0 C0.35 -0.23, 1.31 -0.9, 2.08 -1.36 C2.85 -1.83, 3.7 -2.3, 4.63 -2.78 C5.55 -3.26, 6.64 -3.82, 7.62 -4.24 C8.6 -4.66, 9.22 -5, 10.51 -5.3 C11.8 -5.59, 14.06 -5.88, 15.36 -6.02 C16.66 -6.16, 18.19 -6.41, 18.33 -6.14 C18.48 -5.86, 16.86 -5, 16.25 -4.36 C15.64 -3.73, 15.16 -3.13, 14.69 -2.34 C14.22 -1.56, 13.47 0.27, 13.43 0.35 C13.4 0.42, 14.06 -1.17, 14.48 -1.9 C14.89 -2.62, 15.1 -3.24, 15.92 -4.01 C16.73 -4.77, 18.32 -5.86, 19.37 -6.49 C20.41 -7.13, 21.06 -7.33, 22.21 -7.82 C23.35 -8.32, 24.76 -9.07, 26.23 -9.48 C27.71 -9.89, 29.28 -10.14, 31.06 -10.27 C32.83 -10.41, 35.14 -10.42, 36.91 -10.29 C38.68 -10.16, 40.11 -9.71, 41.68 -9.47 C43.25 -9.24, 44.92 -9.07, 46.31 -8.89 C47.7 -8.7, 48.43 -8.75, 50.02 -8.35 C51.62 -7.94, 54.33 -7.04, 55.88 -6.47 C57.42 -5.9, 58.3 -5.46, 59.29 -4.93 C60.27 -4.41, 61.58 -3.63, 61.8 -3.31 C62.02 -2.99, 61.1 -3.19, 60.61 -3.02 C60.13 -2.84, 59.4 -2.58, 58.89 -2.28 C58.38 -1.99, 57.52 -1.24, 57.55 -1.25 C57.58 -1.27, 58.46 -2.05, 59.05 -2.36 C59.64 -2.68, 60.2 -2.98, 61.09 -3.12 C61.98 -3.25, 62.91 -3.43, 64.38 -3.19 C65.84 -2.96, 67.9 -2.73, 69.87 -1.7 C71.84 -0.67, 74.63 1.69, 76.19 3 C77.75 4.31, 78.15 4.82, 79.21 6.16 C80.28 7.5, 81.69 9.53, 82.57 11.05 C83.44 12.57, 83.91 14.49, 84.45 15.27 C84.99 16.05, 85.24 15.43, 85.82 15.73 C86.4 16.03, 87.34 16.72, 87.94 17.06 C88.54 17.41, 88.94 17.5, 89.41 17.8 C89.88 18.11, 90.25 18.56, 90.75 18.88 C91.24 19.19, 92.71 19.51, 92.4 19.69 C92.08 19.86, 88.86 19.88, 88.87 19.94 C88.89 20.01, 91.41 19.95, 92.49 20.09 C93.56 20.24, 93.74 20.34, 95.32 20.8 C96.91 21.26, 99.9 22.13, 102 22.84 C104.09 23.55, 106.6 24.61, 107.88 25.09 C109.17 25.56, 108.82 25.33, 109.72 25.69 C110.63 26.05, 112.23 26.86, 113.29 27.24 C114.35 27.63, 114.98 27.77, 116.08 28 C117.18 28.23, 118.51 28.36, 119.88 28.61 C121.26 28.86, 123.28 29.25, 124.33 29.52 C125.38 29.79, 125.58 29.85, 126.2 30.22 C126.83 30.59, 127.74 31.03, 128.08 31.72 C128.43 32.4, 128.42 33.45, 128.27 34.33 C128.11 35.21, 128.18 35.75, 127.14 37 C126.11 38.25, 123.04 40.71, 122.06 41.83 C121.07 42.95, 121.79 42.79, 121.24 43.72 C120.69 44.65, 119.83 46.25, 118.76 47.43 C117.69 48.61, 116.44 49.66, 114.82 50.82 C113.19 51.97, 110.34 53.53, 109.01 54.34 C107.69 55.15, 107.84 55.24, 106.85 55.68 C105.86 56.13, 104.73 56.5, 103.08 57.03 C101.43 57.55, 98.73 58.55, 96.96 58.82 C95.2 59.09, 93.43 58.83, 92.5 58.67 C91.57 58.52, 91.9 58.13, 91.38 57.87 C90.87 57.62, 90.12 57.52, 89.42 57.12 C88.72 56.72, 88.21 56.16, 87.19 55.48 C86.18 54.8, 84.7 53.74, 83.33 53.02 C81.97 52.31, 80.72 51.77, 79.02 51.19 C77.32 50.62, 74.76 49.96, 73.11 49.57 C71.47 49.19, 70.5 49.04, 69.16 48.88 C67.81 48.71, 66.66 48.66, 65.03 48.58 C63.4 48.51, 61.46 48.42, 59.39 48.43 C57.31 48.43, 55.39 48.51, 52.59 48.63 C49.8 48.75, 45.07 48.97, 42.59 49.14 C40.12 49.31, 40.67 49.34, 37.75 49.64 C34.82 49.93, 28.24 50.58, 25.05 50.91 C21.87 51.24, 20.44 51.37, 18.63 51.63 C16.83 51.9, 15.32 52.63, 14.22 52.53 C13.12 52.42, 13.2 51.71, 12.02 51.01 C10.85 50.31, 9.01 49.31, 7.14 48.35 C5.28 47.39, 2.78 46.17, 0.84 45.24 C-1.09 44.31, -2.73 43.67, -4.47 42.76 C-6.2 41.85, -8 40.69, -9.58 39.78 C-11.16 38.86, -13.04 37.96, -13.96 37.27 C-14.88 36.59, -14.83 36.2, -15.11 35.67 C-15.39 35.14, -15.48 34.91, -15.65 34.12 C-15.83 33.34, -16.1 32.08, -16.17 30.97 C-16.23 29.86, -16.23 28.67, -16.06 27.46 C-15.9 26.25, -15.74 25.15, -15.18 23.71 C-14.63 22.26, -13.45 20.18, -12.75 18.78 C-12.05 17.38, -11.49 16.38, -10.97 15.3 C-10.45 14.22, -9.96 13.11, -9.64 12.31 C-9.31 11.51, -9.48 11.38, -9.04 10.49 C-8.61 9.61, -7.86 8.13, -7.05 7 C-6.25 5.86, -5.38 4.85, -4.2 3.69 C-3.03 2.52, -0.7 0.61, 0 0" stroke="#000000" stroke-width="2" fill="none"></path></g></g><mask></mask><g stroke-linecap="round"><g transform="translate(644.0015810554355 246.4190268727756) rotate(0 21.58294883010808 -8.816805482533681)"><path d="M0 0 C0.02 -0.22, -0.19 -0.6, 0.1 -1.3 C0.39 -2, 1.14 -3.52, 1.74 -4.2 C2.34 -4.88, 2.9 -5.01, 3.7 -5.38 C4.49 -5.75, 5.4 -5.8, 6.51 -6.44 C7.62 -7.07, 9.31 -8.31, 10.35 -9.18 C11.39 -10.06, 11.66 -10.81, 12.72 -11.7 C13.78 -12.58, 14.82 -13.62, 16.71 -14.48 C18.6 -15.35, 21.71 -16.37, 24.04 -16.89 C26.38 -17.4, 28.36 -17.47, 30.72 -17.57 C33.09 -17.66, 36.38 -17.68, 38.25 -17.45 C40.13 -17.21, 41.14 -16.6, 41.97 -16.16 C42.8 -15.72, 43.17 -15.25, 43.22 -14.81 C43.26 -14.37, 42.87 -13.94, 42.24 -13.54 C41.61 -13.15, 39.91 -12.61, 39.44 -12.42 M0 0 C0.02 -0.22, -0.19 -0.6, 0.1 -1.3 C0.39 -2, 1.14 -3.52, 1.74 -4.2 C2.34 -4.88, 2.9 -5.01, 3.7 -5.38 C4.49 -5.75, 5.4 -5.8, 6.51 -6.44 C7.62 -7.07, 9.31 -8.31, 10.35 -9.18 C11.39 -10.06, 11.66 -10.81, 12.72 -11.7 C13.78 -12.58, 14.82 -13.62, 16.71 -14.48 C18.6 -15.35, 21.71 -16.37, 24.04 -16.89 C26.38 -17.4, 28.36 -17.47, 30.72 -17.57 C33.09 -17.66, 36.38 -17.68, 38.25 -17.45 C40.13 -17.21, 41.14 -16.6, 41.97 -16.16 C42.8 -15.72, 43.17 -15.25, 43.22 -14.81 C43.26 -14.37, 42.87 -13.94, 42.24 -13.54 C41.61 -13.15, 39.91 -12.61, 39.44 -12.42" stroke="#000000" stroke-width="2" fill="none"></path></g></g><mask></mask><g stroke-linecap="round"><g transform="translate(557.6942373794523 211.02929605050076) rotate(0 7.854087244011112 1.1064657497894643)"><path d="M0 0 C0.42 -0.26, 1.66 -1.11, 2.51 -1.56 C3.36 -2.02, 4.3 -2.46, 5.09 -2.74 C5.88 -3.02, 6.42 -3.16, 7.25 -3.23 C8.07 -3.29, 9.23 -3.32, 10.05 -3.13 C10.87 -2.94, 11.64 -2.54, 12.18 -2.1 C12.71 -1.66, 12.91 -1.25, 13.24 -0.5 C13.58 0.24, 13.91 1.59, 14.17 2.37 C14.44 3.16, 14.58 3.7, 14.83 4.22 C15.09 4.74, 15.56 5.28, 15.71 5.49 M0 0 C0.42 -0.26, 1.66 -1.11, 2.51 -1.56 C3.36 -2.02, 4.3 -2.46, 5.09 -2.74 C5.88 -3.02, 6.42 -3.16, 7.25 -3.23 C8.07 -3.29, 9.23 -3.32, 10.05 -3.13 C10.87 -2.94, 11.64 -2.54, 12.18 -2.1 C12.71 -1.66, 12.91 -1.25, 13.24 -0.5 C13.58 0.24, 13.91 1.59, 14.17 2.37 C14.44 3.16, 14.58 3.7, 14.83 4.22 C15.09 4.74, 15.56 5.28, 15.71 5.49" stroke="#000000" stroke-width="2" fill="none"></path></g></g><mask></mask><g stroke-linecap="round"><g transform="translate(599.804455598291 218.6720213179292) rotate(0 10.707437231615813 -1.3160202690220757)"><path d="M0 0 C0.05 -0.2, -0.15 -0.69, 0.3 -1.2 C0.74 -1.7, 1.85 -2.56, 2.66 -3.05 C3.48 -3.53, 4.14 -3.83, 5.18 -4.08 C6.23 -4.34, 7.83 -4.53, 8.93 -4.57 C10.02 -4.62, 10.74 -4.62, 11.73 -4.35 C12.72 -4.09, 13.78 -3.57, 14.85 -2.98 C15.92 -2.38, 17.04 -1.6, 18.14 -0.77 C19.23 0.05, 20.87 1.51, 21.42 1.96 M0 0 C0.05 -0.2, -0.15 -0.69, 0.3 -1.2 C0.74 -1.7, 1.85 -2.56, 2.66 -3.05 C3.48 -3.53, 4.14 -3.83, 5.18 -4.08 C6.23 -4.34, 7.83 -4.53, 8.93 -4.57 C10.02 -4.62, 10.74 -4.62, 11.73 -4.35 C12.72 -4.09, 13.78 -3.57, 14.85 -2.98 C15.92 -2.38, 17.04 -1.6, 18.14 -0.77 C19.23 0.05, 20.87 1.51, 21.42 1.96" stroke="#000000" stroke-width="2" fill="none"></path></g></g><mask></mask><g stroke-linecap="round"><g transform="translate(571.8809984129762 230.89020263425311) rotate(0 -8.345803361235426 -8.694592826278225)" fill-rule="evenodd"><path d="M-1.02 -0.67 L-2 -15.01 L-3.09 -18.77 L-9.79 -19.53 L-16.02 -14.91 L-16 -6.45 L-14.33 0.07 L-6.61 1.84 L-3.41 0.06 L-1.92 -1.46" stroke="none" stroke-width="0" fill="#000000" fill-rule="evenodd"></path><path d="M-0.35 0.73 C-0.33 -0.38, -0.38 -5.46, -0.74 -7.81 C-1.1 -10.16, -1.71 -11.65, -2.5 -13.37 C-3.3 -15.08, -4.49 -16.94, -5.5 -18.08 C-6.5 -19.23, -7.09 -20.29, -8.52 -20.23 C-9.95 -20.17, -12.7 -18.23, -14.06 -17.72 C-15.43 -17.21, -16.08 -17.66, -16.71 -17.16 C-17.35 -16.66, -17.81 -15.65, -17.88 -14.74 C-17.95 -13.83, -17.31 -13.06, -17.14 -11.7 C-16.97 -10.34, -17.24 -7.73, -16.88 -6.57 C-16.52 -5.4, -15.2 -5.42, -15 -4.7 C-14.79 -3.98, -16.05 -3.09, -15.65 -2.25 C-15.25 -1.42, -13.63 -0.28, -12.59 0.31 C-11.56 0.91, -11.07 0.94, -9.44 1.33 C-7.81 1.73, -4.48 2.83, -2.82 2.7 C-1.17 2.57, 0.13 1.05, 0.52 0.58 M1.67 0.08 C2.13 -0.73, 1.83 -3.67, 1.51 -6.21 C1.2 -8.75, 1 -13.38, -0.21 -15.17 C-1.42 -16.97, -4.13 -16.14, -5.76 -16.98 C-7.39 -17.82, -8.74 -19.97, -9.96 -20.21 C-11.18 -20.45, -11.97 -19.24, -13.07 -18.41 C-14.18 -17.59, -16.16 -16.33, -16.59 -15.26 C-17.02 -14.19, -15.31 -12.9, -15.65 -12 C-15.98 -11.11, -18.56 -10.77, -18.6 -9.89 C-18.63 -9, -15.99 -7.66, -15.85 -6.7 C-15.72 -5.74, -18.1 -4.71, -17.79 -4.12 C-17.48 -3.53, -14.86 -4.28, -14.01 -3.14 C-13.15 -1.99, -13.83 2.1, -12.66 2.75 C-11.49 3.4, -8.71 0.8, -6.96 0.76 C-5.21 0.72, -3.61 2.89, -2.15 2.51 C-0.68 2.13, 1.2 -1.2, 1.82 -1.53" stroke="#000000" stroke-width="2" fill="none"></path></g></g><mask></mask><g stroke-linecap="round"><g transform="translate(623.6523223838399 229.6437997305096) rotate(0 -13.478706530023032 0.18324325722844037)" fill-rule="evenodd"><path d="M1.44 1.92 L-3.71 -5.26 L-10.72 -11.56 L-17.34 -10.52 L-20.57 -9.12 L-22.95 -3 L-27.37 3.98 L-20.8 10.09 L-13.87 11.4 L-3.55 7.59 L-0.17 0.95" stroke="none" stroke-width="0" fill="#000000" fill-rule="evenodd"></path><path d="M0.73 -0.88 C0.74 -1.39, -0.54 -2.52, -1.08 -3.43 C-1.61 -4.33, -1.72 -5.63, -2.47 -6.31 C-3.23 -6.99, -4.45 -6.82, -5.62 -7.51 C-6.79 -8.2, -8.52 -9.83, -9.48 -10.45 C-10.44 -11.07, -10.21 -11.19, -11.4 -11.25 C-12.6 -11.3, -15.17 -11.25, -16.67 -10.8 C-18.18 -10.35, -19.44 -9.17, -20.44 -8.54 C-21.43 -7.91, -22.1 -7.88, -22.66 -7.02 C-23.23 -6.17, -23.13 -4.32, -23.83 -3.43 C-24.54 -2.53, -26.2 -2.6, -26.89 -1.65 C-27.57 -0.69, -27.76 1.24, -27.96 2.3 C-28.16 3.36, -28.39 3.74, -28.1 4.73 C-27.82 5.72, -27.09 7.45, -26.25 8.23 C-25.42 9.02, -24.05 9.18, -23.08 9.44 C-22.11 9.69, -21.35 9.55, -20.44 9.76 C-19.53 9.96, -18.89 10.48, -17.61 10.67 C-16.33 10.85, -14.3 10.84, -12.75 10.87 C-11.21 10.9, -9.59 11.39, -8.37 10.85 C-7.15 10.3, -6.54 8.76, -5.43 7.6 C-4.33 6.43, -2.75 5.02, -1.74 3.88 C-0.73 2.74, 0.32 1.39, 0.64 0.75 M-0.34 1.27 C-0.39 0.9, -1.56 -1.36, -1.96 -2.49 C-2.35 -3.62, -2.13 -4.86, -2.7 -5.51 C-3.27 -6.15, -4.55 -5.55, -5.38 -6.38 C-6.2 -7.21, -6.34 -10.03, -7.66 -10.49 C-8.99 -10.95, -11.84 -9.41, -13.31 -9.14 C-14.77 -8.88, -15.6 -8.96, -16.44 -8.89 C-17.29 -8.81, -17.6 -8.79, -18.38 -8.67 C-19.16 -8.54, -20.41 -9.03, -21.14 -8.14 C-21.86 -7.25, -21.78 -4.48, -22.75 -3.33 C-23.72 -2.19, -26.4 -2.08, -26.97 -1.26 C-27.54 -0.44, -25.96 0.19, -26.17 1.58 C-26.39 2.97, -28.08 5.96, -28.28 7.09 C-28.47 8.22, -28.32 8.04, -27.34 8.39 C-26.36 8.73, -23.15 8.76, -22.39 9.15 C-21.62 9.54, -23.33 10.42, -22.76 10.74 C-22.19 11.06, -20.97 11.05, -18.94 11.09 C-16.91 11.14, -12.7 10.95, -10.59 11.03 C-8.48 11.11, -7.2 11.88, -6.29 11.55 C-5.39 11.23, -5.74 10.59, -5.16 9.1 C-4.59 7.6, -3.92 4.15, -2.83 2.61 C-1.74 1.06, 0.85 0.4, 1.39 -0.17" stroke="#000000" stroke-width="2" fill="none"></path></g></g><mask></mask><g stroke-linecap="round"><g transform="translate(596.9250663871094 237.5404451525934) rotate(1.3172110716363803 -0.3940450534902311 -1.2321194330907872)"><path d="M0 0 C-0.1 -0.16, -0.49 -0.56, -0.62 -0.97 C-0.75 -1.38, -0.76 -2.22, -0.79 -2.46 M0 0 C-0.1 -0.16, -0.49 -0.56, -0.62 -0.97 C-0.75 -1.38, -0.76 -2.22, -0.79 -2.46" stroke="#000000" stroke-width="2" fill="none"></path></g></g><mask></mask><g stroke-linecap="round"><g transform="translate(623.5215730697814 229.5028370925819) rotate(0 0.16502531647540764 0.41741535327804513)"><path d="M0 0 C0.06 0.14, 0.28 0.7, 0.33 0.83 M0 0 C0.06 0.14, 0.28 0.7, 0.33 0.83" stroke="#000000" stroke-width="2" fill="none"></path></g></g><mask></mask><g stroke-linecap="round"><g transform="translate(572.4742288637558 238.0672615644147) rotate(0 0.10990752436043749 0.6369053196109178)"><path d="M0 0 C0.04 0.21, 0.18 1.06, 0.22 1.27 M0 0 C0.04 0.21, 0.18 1.06, 0.22 1.27" stroke="#000000" stroke-width="2" fill="none"></path></g></g><mask></mask><g stroke-linecap="round"><g transform="translate(572.6728981329229 238.8601954966001) rotate(0 5.660866387670808 0.6200094135870415)"><path d="M0 0 C0.16 -0.12, 0.38 -0.53, 0.93 -0.71 C1.48 -0.89, 2.33 -1.09, 3.29 -1.07 C4.25 -1.06, 5.66 -0.94, 6.69 -0.64 C7.72 -0.33, 8.71 0.25, 9.48 0.75 C10.25 1.24, 11.01 2.05, 11.32 2.31 M0 0 C0.16 -0.12, 0.38 -0.53, 0.93 -0.71 C1.48 -0.89, 2.33 -1.09, 3.29 -1.07 C4.25 -1.06, 5.66 -0.94, 6.69 -0.64 C7.72 -0.33, 8.71 0.25, 9.48 0.75 C10.25 1.24, 11.01 2.05, 11.32 2.31" stroke="#000000" stroke-width="2" fill="none"></path></g></g><mask></mask><g stroke-linecap="round"><g transform="translate(585.1399268148684 240.96854592780835) rotate(0 0.026152634064828817 0.4329457006622306)"><path d="M0 0 C0.01 0.14, 0.04 0.72, 0.05 0.87 M0 0 C0.01 0.14, 0.04 0.72, 0.05 0.87" stroke="#000000" stroke-width="2" fill="none"></path></g></g><mask></mask><g stroke-linecap="round"><g transform="translate(583.845192881307 241.3228087419294) rotate(0 -3.3627503131781395 -1.7319188491402429)"><path d="M0 0 C-0.27 -0.25, -0.93 -1.06, -1.63 -1.53 C-2.34 -2, -3.38 -2.51, -4.23 -2.83 C-5.08 -3.15, -6.31 -3.36, -6.73 -3.46 M0 0 C-0.27 -0.25, -0.93 -1.06, -1.63 -1.53 C-2.34 -2, -3.38 -2.51, -4.23 -2.83 C-5.08 -3.15, -6.31 -3.36, -6.73 -3.46" stroke="#000000" stroke-width="2" fill="none"></path></g></g><mask></mask><g stroke-linecap="round"><g transform="translate(576.4735506268676 231.66328650545654) rotate(0 2.07532606122993 -1.4456908261502406)"><path d="M0 0 C-0.08 -0.08, -0.44 -0.21, -0.48 -0.51 C-0.53 -0.8, -0.51 -1.43, -0.27 -1.79 C-0.03 -2.15, 0.53 -2.49, 0.95 -2.67 C1.36 -2.85, 1.78 -2.94, 2.22 -2.86 C2.65 -2.78, 3.16 -2.48, 3.57 -2.18 C3.98 -1.89, 4.47 -1.25, 4.65 -1.07 M0 0 C-0.08 -0.08, -0.44 -0.21, -0.48 -0.51 C-0.53 -0.8, -0.51 -1.43, -0.27 -1.79 C-0.03 -2.15, 0.53 -2.49, 0.95 -2.67 C1.36 -2.85, 1.78 -2.94, 2.22 -2.86 C2.65 -2.78, 3.16 -2.48, 3.57 -2.18 C3.98 -1.89, 4.47 -1.25, 4.65 -1.07" stroke="#000000" stroke-width="2" fill="none"></path></g></g><mask></mask><g stroke-linecap="round"><g transform="translate(579.8708338996298 232.34022509126237) rotate(0 0.8113286956386219 0.09948571677421114)"><path d="M0 0 C0.27 0.03, 1.35 0.17, 1.62 0.2 M0 0 C0.27 0.03, 1.35 0.17, 1.62 0.2" stroke="#000000" stroke-width="2" fill="none"></path></g></g><mask></mask><g stroke-linecap="round"><g transform="translate(557.5102766110199 215.65117665586126) rotate(0 3.4193478030251754 0.01963768633463303)" fill-rule="evenodd"><path d="M0 0 L3.4 -2.33 L6.82 -1.46 L6.69 0.06 L2.58 2.44 L0.78 2.08 L0 0" stroke="none" stroke-width="0" fill="#ffffff" fill-rule="evenodd"></path><path d="M0 0 C0.28 -0.21, 1.13 -0.87, 1.7 -1.26 C2.27 -1.65, 2.75 -2.16, 3.4 -2.33 C4.06 -2.49, 5.05 -2.42, 5.62 -2.27 C6.19 -2.13, 6.65 -1.85, 6.82 -1.46 C7 -1.07, 7.03 -0.45, 6.69 0.06 C6.35 0.56, 5.47 1.18, 4.79 1.58 C4.11 1.98, 3.25 2.36, 2.58 2.44 C1.91 2.53, 1.22 2.28, 0.78 2.08 C0.34 1.88, 0.06 1.59, -0.07 1.24 C-0.2 0.9, -0.01 0.21, 0 0 M0 0 C0.28 -0.21, 1.13 -0.87, 1.7 -1.26 C2.27 -1.65, 2.75 -2.16, 3.4 -2.33 C4.06 -2.49, 5.05 -2.42, 5.62 -2.27 C6.19 -2.13, 6.65 -1.85, 6.82 -1.46 C7 -1.07, 7.03 -0.45, 6.69 0.06 C6.35 0.56, 5.47 1.18, 4.79 1.58 C4.11 1.98, 3.25 2.36, 2.58 2.44 C1.91 2.53, 1.22 2.28, 0.78 2.08 C0.34 1.88, 0.06 1.59, -0.07 1.24 C-0.2 0.9, -0.01 0.21, 0 0" stroke="#ffffff" stroke-width="2" fill="none"></path></g></g><mask></mask><g stroke-linecap="round" transform="translate(565.3626560993775 213.95652596389596) rotate(0 0.7232081529482457 0.7239721133163073)"><path d="M1.45 0.72 C1.45 0.77, 1.44 0.81, 1.44 0.85 C1.43 0.89, 1.42 0.93, 1.4 0.97 C1.39 1.01, 1.37 1.05, 1.35 1.09 C1.33 1.12, 1.3 1.16, 1.28 1.19 C1.25 1.22, 1.22 1.25, 1.19 1.28 C1.16 1.31, 1.12 1.33, 1.08 1.35 C1.05 1.37, 1.01 1.39, 0.97 1.4 C0.93 1.42, 0.89 1.43, 0.85 1.44 C0.81 1.44, 0.77 1.45, 0.72 1.45 C0.68 1.45, 0.64 1.44, 0.6 1.44 C0.56 1.43, 0.52 1.42, 0.48 1.4 C0.44 1.39, 0.4 1.37, 0.36 1.35 C0.33 1.33, 0.29 1.31, 0.26 1.28 C0.23 1.25, 0.2 1.22, 0.17 1.19 C0.14 1.16, 0.12 1.12, 0.1 1.09 C0.08 1.05, 0.06 1.01, 0.04 0.97 C0.03 0.93, 0.02 0.89, 0.01 0.85 C0 0.81, 0 0.77, 0 0.72 C0 0.68, 0 0.64, 0.01 0.6 C0.02 0.56, 0.03 0.52, 0.04 0.48 C0.06 0.44, 0.08 0.4, 0.1 0.36 C0.12 0.33, 0.14 0.29, 0.17 0.26 C0.2 0.23, 0.23 0.2, 0.26 0.17 C0.29 0.14, 0.33 0.12, 0.36 0.1 C0.4 0.08, 0.44 0.06, 0.48 0.04 C0.52 0.03, 0.56 0.02, 0.6 0.01 C0.64 0, 0.68 0, 0.72 0 C0.77 0, 0.81 0, 0.85 0.01 C0.89 0.02, 0.93 0.03, 0.97 0.04 C1.01 0.06, 1.05 0.08, 1.08 0.1 C1.12 0.12, 1.16 0.14, 1.19 0.17 C1.22 0.2, 1.25 0.23, 1.28 0.26 C1.3 0.29, 1.33 0.33, 1.35 0.36 C1.37 0.4, 1.39 0.44, 1.4 0.48 C1.42 0.52, 1.43 0.56, 1.44 0.6 C1.44 0.64, 1.44 0.7, 1.45 0.72 C1.45 0.74, 1.45 0.7, 1.45 0.72" stroke="none" stroke-width="0" fill="#ffffff"></path><path d="M1.45 0.72 C1.45 0.77, 1.44 0.81, 1.44 0.85 C1.43 0.89, 1.42 0.93, 1.4 0.97 C1.39 1.01, 1.37 1.05, 1.35 1.09 C1.33 1.12, 1.3 1.16, 1.28 1.19 C1.25 1.22, 1.22 1.25, 1.19 1.28 C1.16 1.31, 1.12 1.33, 1.08 1.35 C1.05 1.37, 1.01 1.39, 0.97 1.4 C0.93 1.42, 0.89 1.43, 0.85 1.44 C0.81 1.44, 0.77 1.45, 0.72 1.45 C0.68 1.45, 0.64 1.44, 0.6 1.44 C0.56 1.43, 0.52 1.42, 0.48 1.4 C0.44 1.39, 0.4 1.37, 0.36 1.35 C0.33 1.33, 0.29 1.31, 0.26 1.28 C0.23 1.25, 0.2 1.22, 0.17 1.19 C0.14 1.16, 0.12 1.12, 0.1 1.09 C0.08 1.05, 0.06 1.01, 0.04 0.97 C0.03 0.93, 0.02 0.89, 0.01 0.85 C0 0.81, 0 0.77, 0 0.72 C0 0.68, 0 0.64, 0.01 0.6 C0.02 0.56, 0.03 0.52, 0.04 0.48 C0.06 0.44, 0.08 0.4, 0.1 0.36 C0.12 0.33, 0.14 0.29, 0.17 0.26 C0.2 0.23, 0.23 0.2, 0.26 0.17 C0.29 0.14, 0.33 0.12, 0.36 0.1 C0.4 0.08, 0.44 0.06, 0.48 0.04 C0.52 0.03, 0.56 0.02, 0.6 0.01 C0.64 0, 0.68 0, 0.72 0 C0.77 0, 0.81 0, 0.85 0.01 C0.89 0.02, 0.93 0.03, 0.97 0.04 C1.01 0.06, 1.05 0.08, 1.08 0.1 C1.12 0.12, 1.16 0.14, 1.19 0.17 C1.22 0.2, 1.25 0.23, 1.28 0.26 C1.3 0.29, 1.33 0.33, 1.35 0.36 C1.37 0.4, 1.39 0.44, 1.4 0.48 C1.42 0.52, 1.43 0.56, 1.44 0.6 C1.44 0.64, 1.44 0.7, 1.45 0.72 C1.45 0.74, 1.45 0.7, 1.45 0.72" stroke="#ffffff" stroke-width="2" fill="none"></path></g><g stroke-linecap="round"><g transform="translate(611.4582857656628 223.26360443123951) rotate(0 2.714797263347691 1.6930020106209582)" fill-rule="evenodd"><path d="M0 0 L-0.72 1.3 L0.02 4.46 L4.05 4.85 L6.19 2.09 L5.11 -1.34 L1.81 -1.18 L0 0" stroke="none" stroke-width="0" fill="#ffffff" fill-rule="evenodd"></path><path d="M0 0 C-0.12 0.22, -0.6 0.83, -0.72 1.3 C-0.84 1.76, -0.83 2.25, -0.71 2.78 C-0.59 3.3, -0.51 4.08, 0.02 4.46 C0.54 4.84, 1.77 4.97, 2.44 5.03 C3.11 5.1, 3.53 5.12, 4.05 4.85 C4.56 4.57, 5.15 3.82, 5.5 3.36 C5.86 2.9, 6.1 2.64, 6.19 2.09 C6.28 1.54, 6.23 0.63, 6.05 0.06 C5.87 -0.51, 5.47 -1.05, 5.11 -1.34 C4.76 -1.63, 4.48 -1.71, 3.93 -1.69 C3.38 -1.66, 2.46 -1.46, 1.81 -1.18 C1.15 -0.9, 0.3 -0.2, 0 0 M0 0 C-0.12 0.22, -0.6 0.83, -0.72 1.3 C-0.84 1.76, -0.83 2.25, -0.71 2.78 C-0.59 3.3, -0.51 4.08, 0.02 4.46 C0.54 4.84, 1.77 4.97, 2.44 5.03 C3.11 5.1, 3.53 5.12, 4.05 4.85 C4.56 4.57, 5.15 3.82, 5.5 3.36 C5.86 2.9, 6.1 2.64, 6.19 2.09 C6.28 1.54, 6.23 0.63, 6.05 0.06 C5.87 -0.51, 5.47 -1.05, 5.11 -1.34 C4.76 -1.63, 4.48 -1.71, 3.93 -1.69 C3.38 -1.66, 2.46 -1.46, 1.81 -1.18 C1.15 -0.9, 0.3 -0.2, 0 0" stroke="#ffffff" stroke-width="2" fill="none"></path></g></g><mask></mask><g stroke-linecap="round" transform="translate(608.5854741794724 222.0363642816211) rotate(46.88460241807818 0.8193638442023712 1.1740876242640326)"><path d="M1.64 1.17 C1.64 1.24, 1.63 1.31, 1.63 1.38 C1.62 1.44, 1.61 1.51, 1.59 1.58 C1.57 1.64, 1.55 1.7, 1.53 1.76 C1.51 1.82, 1.48 1.88, 1.45 1.93 C1.42 1.98, 1.38 2.03, 1.35 2.07 C1.31 2.12, 1.27 2.16, 1.23 2.19 C1.19 2.22, 1.14 2.25, 1.1 2.28 C1.06 2.3, 1.01 2.32, 0.96 2.33 C0.91 2.34, 0.87 2.35, 0.82 2.35 C0.77 2.35, 0.72 2.34, 0.68 2.33 C0.63 2.32, 0.58 2.3, 0.54 2.28 C0.49 2.25, 0.45 2.22, 0.41 2.19 C0.37 2.16, 0.33 2.12, 0.29 2.07 C0.26 2.03, 0.22 1.98, 0.19 1.93 C0.16 1.88, 0.13 1.82, 0.11 1.76 C0.09 1.7, 0.07 1.64, 0.05 1.58 C0.03 1.51, 0.02 1.44, 0.01 1.38 C0 1.31, 0 1.24, 0 1.17 C0 1.11, 0 1.04, 0.01 0.97 C0.02 0.9, 0.03 0.84, 0.05 0.77 C0.07 0.71, 0.09 0.65, 0.11 0.59 C0.13 0.53, 0.16 0.47, 0.19 0.42 C0.22 0.37, 0.26 0.32, 0.29 0.27 C0.33 0.23, 0.37 0.19, 0.41 0.16 C0.45 0.12, 0.49 0.09, 0.54 0.07 C0.58 0.05, 0.63 0.03, 0.68 0.02 C0.72 0.01, 0.77 0, 0.82 0 C0.87 0, 0.91 0.01, 0.96 0.02 C1.01 0.03, 1.06 0.05, 1.1 0.07 C1.14 0.09, 1.19 0.12, 1.23 0.16 C1.27 0.19, 1.31 0.23, 1.35 0.27 C1.38 0.32, 1.42 0.37, 1.45 0.42 C1.48 0.47, 1.51 0.53, 1.53 0.59 C1.55 0.65, 1.57 0.71, 1.59 0.77 C1.61 0.84, 1.62 0.9, 1.63 0.97 C1.63 1.04, 1.64 1.14, 1.64 1.17 C1.64 1.21, 1.64 1.14, 1.64 1.17" stroke="none" stroke-width="0" fill="#ffffff"></path><path d="M1.64 1.17 C1.64 1.24, 1.63 1.31, 1.63 1.38 C1.62 1.44, 1.61 1.51, 1.59 1.58 C1.57 1.64, 1.55 1.7, 1.53 1.76 C1.51 1.82, 1.48 1.88, 1.45 1.93 C1.42 1.98, 1.38 2.03, 1.35 2.07 C1.31 2.12, 1.27 2.16, 1.23 2.19 C1.19 2.22, 1.14 2.25, 1.1 2.28 C1.06 2.3, 1.01 2.32, 0.96 2.33 C0.91 2.34, 0.87 2.35, 0.82 2.35 C0.77 2.35, 0.72 2.34, 0.68 2.33 C0.63 2.32, 0.58 2.3, 0.54 2.28 C0.49 2.25, 0.45 2.22, 0.41 2.19 C0.37 2.16, 0.33 2.12, 0.29 2.07 C0.26 2.03, 0.22 1.98, 0.19 1.93 C0.16 1.88, 0.13 1.82, 0.11 1.76 C0.09 1.7, 0.07 1.64, 0.05 1.58 C0.03 1.51, 0.02 1.44, 0.01 1.38 C0 1.31, 0 1.24, 0 1.17 C0 1.11, 0 1.04, 0.01 0.97 C0.02 0.9, 0.03 0.84, 0.05 0.77 C0.07 0.71, 0.09 0.65, 0.11 0.59 C0.13 0.53, 0.16 0.47, 0.19 0.42 C0.22 0.37, 0.26 0.32, 0.29 0.27 C0.33 0.23, 0.37 0.19, 0.41 0.16 C0.45 0.12, 0.49 0.09, 0.54 0.07 C0.58 0.05, 0.63 0.03, 0.68 0.02 C0.72 0.01, 0.77 0, 0.82 0 C0.87 0, 0.91 0.01, 0.96 0.02 C1.01 0.03, 1.06 0.05, 1.1 0.07 C1.14 0.09, 1.19 0.12, 1.23 0.16 C1.27 0.19, 1.31 0.23, 1.35 0.27 C1.38 0.32, 1.42 0.37, 1.45 0.42 C1.48 0.47, 1.51 0.53, 1.53 0.59 C1.55 0.65, 1.57 0.71, 1.59 0.77 C1.61 0.84, 1.62 0.9, 1.63 0.97 C1.63 1.04, 1.64 1.14, 1.64 1.17 C1.64 1.21, 1.64 1.14, 1.64 1.17" stroke="#ffffff" stroke-width="2" fill="none"></path></g><g stroke-linecap="round"><g transform="translate(581.0872832637783 230.7357067888189) rotate(0 -2.3997483625241784 -0.8456257105676741)"><path d="M0 0 C-0.16 -0.18, -0.59 -0.79, -0.96 -1.06 C-1.33 -1.33, -1.77 -1.55, -2.21 -1.64 C-2.66 -1.73, -3.18 -1.7, -3.61 -1.6 C-4.05 -1.49, -4.6 -1.1, -4.8 -1 M0 0 C-0.16 -0.18, -0.59 -0.79, -0.96 -1.06 C-1.33 -1.33, -1.77 -1.55, -2.21 -1.64 C-2.66 -1.73, -3.18 -1.7, -3.61 -1.6 C-4.05 -1.49, -4.6 -1.1, -4.8 -1" stroke="#000000" stroke-width="2" fill="none"></path></g></g><mask></mask><g stroke-linecap="round"><g transform="translate(553.9566610775596 208.13089267626788) rotate(0 -6.079352727066748 -2.4275577636976067)"><path d="M0 0 C-0.7 0.02, -3.25 0.16, -4.21 0.11 C-5.17 0.06, -5.28 -0.1, -5.78 -0.28 C-6.28 -0.47, -6.6 -0.58, -7.21 -1.02 C-7.81 -1.46, -8.58 -2.26, -9.4 -2.92 C-10.23 -3.58, -11.7 -4.63, -12.16 -4.97 M0 0 C-0.7 0.02, -3.25 0.16, -4.21 0.11 C-5.17 0.06, -5.28 -0.1, -5.78 -0.28 C-6.28 -0.47, -6.6 -0.58, -7.21 -1.02 C-7.81 -1.46, -8.58 -2.26, -9.4 -2.92 C-10.23 -3.58, -11.7 -4.63, -12.16 -4.97" stroke="#000000" stroke-width="2" fill="none"></path></g></g><mask></mask><g stroke-linecap="round"><g transform="translate(728.122015953064 145.59664482188612) rotate(0 144.4167663217802 0.44833311289549727)"><path d="M1.2 -0.71 C49.02 -0.61, 238.55 1.19, 286.18 1.61 M0.37 1.53 C48.63 1.8, 240.82 0.08, 288.47 -0.2" stroke="#000000" stroke-width="1" fill="none"></path></g><g transform="translate(728.122015953064 145.59664482188612) rotate(0 144.4167663217802 0.44833311289549727)"><path d="M259.16 8.91 C268.02 7.47, 275.11 3.21, 290.28 0.6 M261.17 9.69 C266.91 7.8, 273.97 4.43, 287.51 -0.67" stroke="#000000" stroke-width="1" fill="none"></path></g><g transform="translate(728.122015953064 145.59664482188612) rotate(0 144.4167663217802 0.44833311289549727)"><path d="M259.01 -11.61 C268.08 -8.13, 275.2 -7.46, 290.28 0.6 M261.02 -10.83 C266.85 -7.5, 273.94 -5.64, 287.51 -0.67" stroke="#000000" stroke-width="1" fill="none"></path></g></g><mask></mask><g transform="translate(807.122015953064 103.59664482188613) rotate(0 31.738136291503906 16.799999999999997)"><text x="0" y="0" font-family="Virgil, Segoe UI Emoji" font-size="28px" fill="#000000" text-anchor="start" style="white-space: pre;" direction="ltr" dominant-baseline="text-before-edge">GET</text></g><g stroke-linecap="round"><g transform="translate(999.122015953064 226.59664482188612) rotate(0 -136.2202421100576 -2.0268945968756498)"><path d="M0.02 0.24 C-45.39 -0.3, -226.3 -1.84, -271.34 -2.46 M-1.42 -0.68 C-47.13 -1.65, -227.61 -4.01, -272.46 -4.29" stroke="#c92a2a" stroke-width="1" fill="none"></path></g><g transform="translate(999.122015953064 226.59664482188612) rotate(0 -136.2202421100576 -2.0268945968756498)"><path d="M-243.77 -14.83 C-254.42 -8.96, -267.34 -4.94, -273.36 -4.33 M-244.79 -14.94 C-255.21 -10.22, -265.84 -6.55, -272.1 -4.69" stroke="#c92a2a" stroke-width="1" fill="none"></path></g><g transform="translate(999.122015953064 226.59664482188612) rotate(0 -136.2202421100576 -2.0268945968756498)"><path d="M-243.98 5.7 C-254.69 3.42, -267.52 -0.7, -273.36 -4.33 M-245 5.58 C-255.37 2.54, -265.92 -1.57, -272.1 -4.69" stroke="#c92a2a" stroke-width="1" fill="none"></path></g></g><mask></mask><g transform="translate(767.122015953064 182.59664482188612) rotate(0 122.20651245117188 16.799999999999997)"><text x="0" y="0" font-family="Virgil, Segoe UI Emoji" font-size="28px" fill="#c92a2a" text-anchor="start" style="white-space: pre;" direction="ltr" dominant-baseline="text-before-edge">OK [HTML Data]</text></g><g transform="translate(725.122015953064 103.59664482188613) rotate(0 14.336051940917969 16.799999999999997)"><text x="0" y="0" font-family="Virgil, Segoe UI Emoji" font-size="28px" fill="#1864ab" text-anchor="start" style="white-space: pre;" direction="ltr" dominant-baseline="text-before-edge">(1)</text></g><g transform="translate(1001.785964012146 226.7966448218861) rotate(0 20.51007843017578 16.80000000000001)"><text x="0" y="0" font-family="Virgil, Segoe UI Emoji" font-size="28px" fill="#1864ab" text-anchor="start" style="white-space: pre;" direction="ltr" dominant-baseline="text-before-edge">(2)</text></g><g transform="translate(10 259.46805347514544) rotate(0 20.076080322265625 16.80000000000001)"><text x="0" y="0" font-family="Virgil, Segoe UI Emoji" font-size="28px" fill="#1864ab" text-anchor="start" style="white-space: pre;" direction="ltr" dominant-baseline="text-before-edge">(3)</text></g><g transform="translate(72.75703930854797 263.7031180770436) rotate(0 222.05772399902344 13.199999999999989)"><text x="0" y="0" font-family="Virgil, Segoe UI Emoji" font-size="22px" fill="#1864ab" text-anchor="start" style="white-space: pre;" direction="ltr" dominant-baseline="text-before-edge">(https://bob.com) --&gt; Etag: "3147526947"</text></g><g stroke-linecap="round"><g transform="translate(718.7228378011964 326.1966381461659) rotate(0 144.9249639986349 0.20145886135432534)"><path d="M0.57 1.17 C49.1 1.19, 242.3 1.24, 290.43 1.22 M-0.58 0.74 C47.93 0.88, 241.79 -1.06, 289.98 -0.79" stroke="#000000" stroke-width="1" fill="none"></path></g><g transform="translate(718.7228378011964 326.1966381461659) rotate(0 144.9249639986349 0.20145886135432534)"><path d="M263.78 11.14 C268.81 6.77, 275.22 4.5, 288.89 0.7 M261.18 9.83 C270.04 6.33, 278.39 2.73, 289.18 -0.64" stroke="#000000" stroke-width="1" fill="none"></path></g><g transform="translate(718.7228378011964 326.1966381461659) rotate(0 144.9249639986349 0.20145886135432534)"><path d="M263.71 -9.38 C268.95 -8.86, 275.38 -6.23, 288.89 0.7 M261.12 -10.69 C270.02 -8.03, 278.39 -5.48, 289.18 -0.64" stroke="#000000" stroke-width="1" fill="none"></path></g></g><mask></mask><g transform="translate(800.2072296142578 284.1966381461659) rotate(0 31.738136291503906 16.80000000000001)"><text x="0" y="0" font-family="Virgil, Segoe UI Emoji" font-size="28px" fill="#000000" text-anchor="start" style="white-space: pre;" direction="ltr" dominant-baseline="text-before-edge">GET</text></g><g stroke-linecap="round"><g transform="translate(978.2129718602673 443.2218207647803) rotate(0 -135.58751822317686 -1.38943768685877)"><path d="M0.95 0.22 C-44.33 -0.48, -225.79 -2.35, -271.12 -2.99 M-0.01 -0.72 C-45.51 -0.7, -226.83 -1.11, -272.12 -1.44" stroke="#c92a2a" stroke-width="1" fill="none"></path></g><g transform="translate(978.2129718602673 443.2218207647803) rotate(0 -135.58751822317686 -1.38943768685877)"><path d="M-243.53 -11.76 C-253.56 -7.81, -264.52 -2.81, -272.12 -1.2 M-244.11 -11.44 C-255.32 -7.9, -266.84 -3.42, -272.93 -1.09" stroke="#c92a2a" stroke-width="1" fill="none"></path></g><g transform="translate(978.2129718602673 443.2218207647803) rotate(0 -135.58751822317686 -1.38943768685877)"><path d="M-243.62 8.76 C-253.82 5.57, -264.75 3.43, -272.12 -1.2 M-244.2 9.08 C-255.24 4.6, -266.73 1.05, -272.93 -1.09" stroke="#c92a2a" stroke-width="1" fill="none"></path></g></g><mask></mask><g transform="translate(737.2072296142578 400.1966381461659) rotate(0 121.81452178955078 16.80000000000001)"><text x="0" y="0" font-family="Virgil, Segoe UI Emoji" font-size="28px" fill="#c92a2a" text-anchor="start" style="white-space: pre;" direction="ltr" dominant-baseline="text-before-edge">304 Not Modified</text></g><g transform="translate(718.2072296142578 284.1966381461659) rotate(0 19.5020751953125 16.80000000000001)"><text x="0" y="0" font-family="Virgil, Segoe UI Emoji" font-size="28px" fill="#1864ab" text-anchor="start" style="white-space: pre;" direction="ltr" dominant-baseline="text-before-edge">(4)</text></g><g transform="translate(980.8711776733398 443.39663814616586) rotate(0 19.194076538085938 16.80000000000001)"><text x="0" y="0" font-family="Virgil, Segoe UI Emoji" font-size="28px" fill="#1864ab" text-anchor="start" style="white-space: pre;" direction="ltr" dominant-baseline="text-before-edge">(5)</text></g><g transform="translate(238.5822012177996 394.61397477794526) rotate(0 17.843454328358916 8.110661058344931)"><text x="0" y="0" font-family="Virgil, Segoe UI Emoji" font-size="12.9770576933519px" fill="#000" text-anchor="start" style="white-space: pre;" direction="ltr" dominant-baseline="text-before-edge">HTML</text></g><g stroke-linecap="round" transform="translate(227.21165631852045 307.3579793976967) rotate(0 28.503539811929272 38.84460053071541)"><path d="M1.18 0.52 L56.01 1.7 L55.81 76.09 L1.25 78.87" stroke="none" stroke-width="0" fill="#ff7353"></path><path d="M-1.56 0.04 C15.73 1.35, 30.39 0.41, 56.69 -1.57 M1 0.75 C16.61 0.39, 32.4 -1.13, 58 -0.48 M56.41 1.65 C58.93 19.27, 56.84 38.85, 58.96 78.06 M58 0.55 C56.5 30.17, 57.32 58.63, 57.63 77.49 M56.82 75.97 C38.98 76.54, 24.38 76.85, 1.98 78.18 M57.05 78.54 C36.98 78.68, 16.57 76.94, -0.87 77.74 M0.84 75.72 C0.98 46.77, -0.58 19.52, -1.3 0.02 M-0.4 78.06 C-0.78 51.91, -0.41 25.77, -0.08 0.6" stroke="#000000" stroke-width="4" fill="none"></path></g><g stroke-linecap="round" transform="translate(244.7383666568137 316.7550063639175) rotate(0 22.925079182596278 9.653455586158742)"><path d="M0.52 -0.99 L47.55 -1.19 L44.25 20.56 L1.18 19.27" stroke="none" stroke-width="0" fill="#fff"></path><path d="M0.04 0.7 C13.19 0.68, 24.63 0.04, 44.28 -0.46 M0.75 0.83 C17.27 0.38, 32.23 0.54, 45.37 -0.62 M47.45 1.2 C46.44 6.66, 47.52 16.83, 46.21 20.89 M46.38 0.17 C46.3 5.04, 45.15 8.76, 45.65 19.26 M44.13 18.08 C34.72 20.25, 25.32 21.25, 0.49 20.57 M46.7 19.98 C36.19 20.28, 23.93 18.46, 0.05 20.12 M-1.9 20.87 C-1.23 11.98, 1.05 3.29, 0.02 0.71 M0.35 18.45 C0.33 13.29, 0.35 8.18, 0.58 0.57" stroke="#000000" stroke-width="4" fill="none"></path></g><g transform="translate(250.51376872036894 319.87135402501787) rotate(0 17.843454328358916 8.110661058344931)"><text x="0" y="0" font-family="Virgil, Segoe UI Emoji" font-size="12.9770576933519px" fill="#000000" text-anchor="start" style="white-space: pre;" direction="ltr" dominant-baseline="text-before-edge">HTML</text></g><g transform="translate(237.79901550935324 353.493042020648) rotate(0 18.81673365536028 14.599189905020893)"><text x="0" y="0" font-family="Virgil, Segoe UI Emoji" font-size="23.35870384803342px" fill="#000" text-anchor="start" style="white-space: pre;" direction="ltr" dominant-baseline="text-before-edge">&lt;/&gt;</text></g><g transform="translate(776.8427696228027 229.5966381461659) rotate(0 104.73989868164062 12)"><text x="0" y="0" font-family="Virgil, Segoe UI Emoji" font-size="20px" fill="#c92a2a" text-anchor="start" style="white-space: pre;" direction="ltr" dominant-baseline="text-before-edge">ETags: "3147526947"</text></g><g transform="translate(721.3111457824707 344.59663814616584) rotate(0 142.07986450195312 12)"><text x="0" y="0" font-family="Virgil, Segoe UI Emoji" font-size="20px" fill="#000000" text-anchor="start" style="white-space: pre;" direction="ltr" dominant-baseline="text-before-edge">if-none-match: "3147526947" </text></g></svg>