<svg version="1.1" xmlns="http://www.w3.org/2000/svg" viewBox="0 0 554.7978125468344 368.187702736357" width="554.7978125468344" height="368.187702736357">
  <!-- svg-source:excalidraw -->
  
  <defs>
    <style class="style-fonts">
      @font-face {
        font-family: "Virgil";
        src: url("https://excalidraw.com/Virgil.woff2");
      }
      @font-face {
        font-family: "Cascadia";
        src: url("https://excalidraw.com/Cascadia.woff2");
      }
    </style>
  </defs>
  <g stroke-linecap="round" transform="translate(14.774873697891053 10) rotate(0 265.01146942447167 174.0938513681785)"><path d="M-0.44 0.06 C188.81 2.55, 377.43 2.42, 529.42 -0.64 M0.03 -0.28 C179.15 1.5, 357.9 1.77, 529.77 0.38 M529.47 -0.67 C531 71.4, 530.64 139.9, 530.55 349.05 M530.06 0.18 C532.31 94.1, 532.17 188.04, 530.05 348.11 M529.78 348.12 C319.12 348.3, 109.15 347.21, 0.73 347.85 M529.97 348.5 C366.02 348.63, 201.53 349.04, -0.28 347.9 M-0.21 348.02 C-1.49 250.66, -0.75 152.74, -1.19 -1.12 M-0.11 347.81 C0.58 266.18, 0.93 184.25, 0.12 0.08" stroke="#000000" stroke-width="1" fill="none"></path></g><g stroke-linecap="round" transform="translate(14.252102735291373 12.123108128617673) rotate(0 44.513839025712514 9.779171705243307)"><path d="M-1.26 -1.44 L88.69 -1.9 L89.75 21.36 L1.25 20.57" stroke="none" stroke-width="0" fill="#ced4da"></path><path d="M0.14 -0.16 C30.88 -0.29, 59.9 -1.01, 87.42 0.75 M-0.71 0.55 C30.11 0.05, 60.68 -0.7, 89.98 -0.98 M88.03 -1.14 C90.45 5.68, 87.51 15.52, 90.33 18.95 M89.3 0.29 C89.66 7.75, 90.01 15.38, 88.91 20.51 M88.86 18.99 C56.67 20.46, 20.62 21.1, -0.84 19.75 M89.8 19.67 C63.38 18.47, 39.6 18.75, -0.71 19.36 M-0.25 20.1 C0.32 13.75, -0.03 2.85, -1.68 -1.26 M-0.57 19.45 C-0.19 14.67, -0.09 9.13, 0.13 0.09" stroke="#000000" stroke-width="1" fill="none"></path></g><g stroke-linecap="round" transform="translate(185.27734531074384 10.122836640691844) rotate(0 178.6026297912972 11.648900422123923)"><path d="M-1.44 -0.34 L355.31 0.72 L359 24.54 L1.01 21.48" stroke="none" stroke-width="0" fill="#ced4da"></path><path d="M-0.1 0.98 C73.95 0.61, 147.92 -1.19, 357.68 0.46 M0.35 0.14 C83.49 2.19, 166.41 2.22, 356.58 0.49 M356.04 1.45 C355.38 5.49, 357.92 15.42, 356.59 25.14 M357.5 0.59 C357.3 8.59, 357.26 15.18, 358.18 24.04 M356.84 23.91 C255.35 21.99, 153.16 22.57, 0.12 23.02 M357.28 22.75 C236.19 25.16, 115.96 24.6, -0.12 23.82 M0.55 23.54 C1.73 17.17, -1.78 9.56, -1.29 -0.58 M-0.11 23.27 C0.46 14.5, 0.22 5.7, 0.09 -0.63" stroke="#000000" stroke-width="1" fill="none"></path></g><g stroke-linecap="round"><g transform="translate(11.603777985936176 43.06132956631984) rotate(0 264.4846968806487 -1.200624034061022)"><path d="M-0.09 0.92 C88.44 0.64, 442.2 -0.88, 530.57 -1.57 M-1.6 0.35 C86.79 -0.27, 440.35 -2.85, 529.38 -3.32" stroke="#000000" stroke-width="1" fill="none"></path></g></g><mask></mask><g transform="translate(51.62465015345242 23.2168281577583) rotate(0 0.00006214071140675514 0.00006214071130727916)" stroke="none"><path fill="#e67700" d="M 3.14,-3.14 Q 3.14,-3.14 3.55,-2.55 3.97,-1.97 4.18,-1.28 4.40,-0.59 4.38,0.11 4.36,0.83 4.11,1.51 3.86,2.18 3.41,2.74 2.96,3.30 2.36,3.69 1.75,4.07 1.05,4.25 0.36,4.42 -0.35,4.36 -1.07,4.30 -1.73,4.02 -2.39,3.74 -2.92,3.26 -3.46,2.78 -3.81,2.15 -4.16,1.53 -4.30,0.82 -4.43,0.11 -4.34,-0.59 -4.24,-1.30 -3.92,-1.94 -3.60,-2.59 -3.09,-3.09 -2.59,-3.60 -1.94,-3.92 -1.30,-4.24 -0.59,-4.34 0.12,-4.43 0.82,-4.30 1.53,-4.16 2.15,-3.81 2.78,-3.46 3.26,-2.92 3.74,-2.39 4.02,-1.73 4.31,-1.07 4.36,-0.35 4.42,0.36 4.25,1.05 4.07,1.75 3.69,2.36 3.30,2.96 2.74,3.41 2.18,3.86 1.51,4.11 0.83,4.36 0.11,4.38 -0.60,4.40 -1.28,4.18 -1.97,3.97 -2.55,3.55 -3.14,3.13 -3.14,3.14 -3.14,3.14 -3.47,2.71 -3.80,2.29 -4.02,1.80 -4.24,1.32 -4.33,0.79 -4.43,0.26 -4.40,-0.26 -4.36,-0.80 -4.20,-1.31 -4.04,-1.82 -3.77,-2.28 -3.49,-2.73 -3.11,-3.11 -2.73,-3.49 -2.28,-3.77 -1.82,-4.05 -1.31,-4.20 -0.80,-4.36 -0.26,-4.40 0.26,-4.43 0.79,-4.33 1.32,-4.24 1.80,-4.02 2.29,-3.80 2.71,-3.47 3.14,-3.14 3.14,-3.14 L 3.14,-3.14 Z"></path></g><g transform="translate(33.18706419195314 23.480036346536508) rotate(0 0.00006214071140675514 0.00006214071130727916)" stroke="none"><path fill="#c92a2a" d="M 3.14,-3.14 Q 3.14,-3.14 3.55,-2.55 3.97,-1.97 4.18,-1.28 4.40,-0.59 4.38,0.11 4.36,0.83 4.11,1.51 3.86,2.18 3.41,2.74 2.96,3.30 2.36,3.69 1.75,4.07 1.05,4.25 0.36,4.42 -0.35,4.36 -1.07,4.30 -1.73,4.02 -2.39,3.74 -2.92,3.26 -3.46,2.78 -3.81,2.15 -4.16,1.53 -4.30,0.82 -4.43,0.11 -4.34,-0.59 -4.24,-1.30 -3.92,-1.94 -3.60,-2.59 -3.09,-3.09 -2.59,-3.60 -1.94,-3.92 -1.30,-4.24 -0.59,-4.34 0.12,-4.43 0.82,-4.30 1.53,-4.16 2.15,-3.81 2.78,-3.46 3.26,-2.92 3.74,-2.39 4.02,-1.73 4.31,-1.07 4.36,-0.35 4.42,0.36 4.25,1.05 4.07,1.75 3.69,2.36 3.30,2.96 2.74,3.41 2.18,3.86 1.51,4.11 0.83,4.36 0.11,4.38 -0.60,4.40 -1.28,4.18 -1.97,3.97 -2.55,3.55 -3.14,3.13 -3.14,3.14 -3.14,3.14 -3.47,2.71 -3.80,2.29 -4.02,1.80 -4.24,1.32 -4.33,0.79 -4.43,0.26 -4.40,-0.26 -4.36,-0.80 -4.20,-1.31 -4.04,-1.82 -3.77,-2.28 -3.49,-2.73 -3.11,-3.11 -2.73,-3.49 -2.28,-3.77 -1.82,-4.05 -1.31,-4.20 -0.80,-4.36 -0.26,-4.40 0.26,-4.43 0.79,-4.33 1.32,-4.24 1.80,-4.02 2.29,-3.80 2.71,-3.47 3.14,-3.14 3.14,-3.14 L 3.14,-3.14 Z"></path></g><g transform="translate(68.5043980270948 23.28235333799023) rotate(0 0.00006214071140675514 0.00006214071130727916)" stroke="none"><path fill="#087f5b" d="M 3.14,-3.14 Q 3.14,-3.14 3.55,-2.55 3.97,-1.97 4.18,-1.28 4.40,-0.59 4.38,0.11 4.36,0.83 4.11,1.51 3.86,2.18 3.41,2.74 2.96,3.30 2.36,3.69 1.75,4.07 1.05,4.25 0.36,4.42 -0.35,4.36 -1.07,4.30 -1.73,4.02 -2.39,3.74 -2.92,3.26 -3.46,2.78 -3.81,2.15 -4.16,1.53 -4.30,0.82 -4.43,0.11 -4.34,-0.59 -4.24,-1.30 -3.92,-1.94 -3.60,-2.59 -3.09,-3.09 -2.59,-3.60 -1.94,-3.92 -1.30,-4.24 -0.59,-4.34 0.12,-4.43 0.82,-4.30 1.53,-4.16 2.15,-3.81 2.78,-3.46 3.26,-2.92 3.74,-2.39 4.02,-1.73 4.31,-1.07 4.36,-0.35 4.42,0.36 4.25,1.05 4.07,1.75 3.69,2.36 3.30,2.96 2.74,3.41 2.18,3.86 1.51,4.11 0.83,4.36 0.11,4.38 -0.60,4.40 -1.28,4.18 -1.97,3.97 -2.55,3.55 -3.14,3.13 -3.14,3.14 -3.14,3.14 -3.47,2.71 -3.80,2.29 -4.02,1.80 -4.24,1.32 -4.33,0.79 -4.43,0.26 -4.40,-0.26 -4.36,-0.80 -4.20,-1.31 -4.04,-1.82 -3.77,-2.28 -3.49,-2.73 -3.11,-3.11 -2.73,-3.49 -2.28,-3.77 -1.82,-4.05 -1.31,-4.20 -0.80,-4.36 -0.26,-4.40 0.26,-4.43 0.79,-4.33 1.32,-4.24 1.80,-4.02 2.29,-3.80 2.71,-3.47 3.14,-3.14 3.14,-3.14 L 3.14,-3.14 Z"></path></g><g stroke-linecap="round"><g transform="translate(165.19664669447593 16.47451621903724) rotate(0 4.383223607014088 4.847544999922164)"><path d="M-0.9 -0.97 C0.79 0.69, 8.11 8.78, 9.66 10.66 M0.83 1.14 C2.44 2.37, 7.28 7, 8.95 8.76" stroke="#000000" stroke-width="1" fill="none"></path></g></g><mask></mask><g stroke-linecap="round"><g transform="translate(173.55428876019778 16.32130205783642) rotate(0 -4.155561940838879 4.706103168118162)"><path d="M-0.97 0.45 C-2.47 2.04, -7.04 7.29, -8.32 8.65 M0.73 -0.36 C-0.96 1.45, -7.36 8.13, -9.04 9.77" stroke="#000000" stroke-width="1" fill="none"></path></g></g><mask></mask><g stroke-linecap="round"><g transform="translate(197.62322500148093 13.215953278496272) rotate(0 0.15109895499404047 7.020233486643384)"><path d="M0 0 C0.05 2.34, 0.25 11.7, 0.3 14.04 M0 0 C0.05 2.34, 0.25 11.7, 0.3 14.04" stroke="#000000" stroke-width="1" fill="none"></path></g></g><mask></mask><g stroke-linecap="round"><g transform="translate(190.64333346884177 20.671384762578782) rotate(0 7.417051616021126 -0.22444796227279085)"><path d="M0 0 C2.47 -0.07, 12.36 -0.37, 14.83 -0.45 M0 0 C2.47 -0.07, 12.36 -0.37, 14.83 -0.45" stroke="#000000" stroke-width="1" fill="none"></path></g></g><mask></mask><g stroke-linecap="round" transform="translate(92.03602901421982 51.18728251641687) rotate(0 196.1129883079684 17)"><path d="M9.25 0.71 L382.4 0.16 L386.03 1.62 L392.13 5.02 L394.04 24.23 L392 29.92 L385.25 34.05 L7.65 32.98 L0.96 33.32 L-1.72 23.94 L1.34 6.11 L1.51 3.97 L9.06 0.1" stroke="none" stroke-width="0" fill="#ced4da"></path><path d="M8.5 0 M8.5 0 C131.62 -0.2, 254.59 -1.49, 383.73 0 M8.5 0 C157.46 0.24, 306.61 0.58, 383.73 0 M383.73 0 C390.56 -1.76, 394.04 1.99, 392.23 8.5 M383.73 0 C389.61 -0.49, 393.08 2.51, 392.23 8.5 M392.23 8.5 C390.61 15.19, 391.07 20.12, 392.23 25.5 M392.23 8.5 C392.23 13.16, 392.6 18.14, 392.23 25.5 M392.23 25.5 C393.92 31.05, 387.57 32.28, 383.73 34 M392.23 25.5 C390.74 30.5, 391.24 33.63, 383.73 34 M383.73 34 C293.65 34.02, 202.77 34.09, 8.5 34 M383.73 34 C267.61 31.78, 151.91 32.91, 8.5 34 M8.5 34 C4.08 35.01, -1.82 30.64, 0 25.5 M8.5 34 C0.65 35.5, 1.39 30.01, 0 25.5 M0 25.5 C1.38 19.28, 1.33 11.64, 0 8.5 M0 25.5 C-0.69 21.38, -0.91 16.05, 0 8.5 M0 8.5 C0.87 4.49, 4.57 1.89, 8.5 0 M0 8.5 C1.32 2.25, 4.2 -1.07, 8.5 0" stroke="#000000" stroke-width="1" fill="none"></path></g><g stroke-linecap="round"><g transform="translate(23.12846343027104 62.84581637238739) rotate(89.99999999999994 8.574535367062253 4.597468082408767)"><path d="M0.1 -0.85 C1.72 0.95, 7.14 9.56, 10.2 10.02 C13.26 10.49, 17.24 3.26, 18.46 1.92 M-1.31 1.32 C0.18 2.81, 6.41 8.24, 9.59 8.04 C12.78 7.84, 16.47 1.48, 17.77 0.14" stroke="#000000" stroke-width="1" fill="none"></path></g></g><mask></mask><g stroke-linecap="round"><g transform="translate(38.020387799895616 76.59354177323303) rotate(90.26145384971288 -0.1716076262862316 -9.633435122787148)"><path d="M-0.85 0.65 C-0.79 -2.68, -0.64 -16.34, -0.44 -19.92 M0.9 -0.05 C0.9 -3.18, -1.13 -15, -1.25 -18.31" stroke="#000000" stroke-width="1" fill="none"></path></g></g><mask></mask><g stroke-linecap="round"><g transform="translate(69.39187715044318 60.92874340557205) rotate(270 9.794640671896559 5.105141046573664)"><path d="M0.65 0.26 C2.25 2.21, 6.87 10.56, 9.69 10.85 C12.51 11.13, 16.31 3.49, 17.56 1.97 M-0.46 -0.65 C0.98 1.07, 5.4 9.15, 8.82 9.3 C12.24 9.44, 18.72 1.83, 20.05 0.22" stroke="#000000" stroke-width="1" fill="none"></path></g></g><mask></mask><g stroke-linecap="round"><g transform="translate(70.50361331365093 78.19615753272694) rotate(90.26145384971288 -0.3339477117615388 -10.340558688460987)"><path d="M0.26 0.15 C0.47 -3.43, 0.36 -17.26, 0.39 -20.83 M-1.06 -0.82 C-0.84 -4.32, -0.21 -16.4, 0.01 -19.69" stroke="#000000" stroke-width="1" fill="none"></path></g></g><mask></mask><g stroke-linecap="round"><g transform="translate(502.2331404313845 55.50870121463004) rotate(0 12.03315314430506 -0.6384250939632068)"><path d="M0 0 C4.01 -0.21, 20.06 -1.06, 24.07 -1.28 M0 0 C4.01 -0.21, 20.06 -1.06, 24.07 -1.28" stroke="#000000" stroke-width="2" fill="none"></path></g></g><mask></mask><g stroke-linecap="round"><g transform="translate(501.745238752771 64.9414670011563) rotate(0 11.33097032720525 -1.2343184257463236)"><path d="M0 0 C3.78 -0.41, 18.88 -2.06, 22.66 -2.47 M0 0 C3.78 -0.41, 18.88 -2.06, 22.66 -2.47" stroke="#000000" stroke-width="2" fill="none"></path></g></g><mask></mask><g stroke-linecap="round"><g transform="translate(502.23799517445514 72.16775206201658) rotate(0 11.33097032720525 -1.2343184257463236)"><path d="M0 0 C3.78 -0.41, 18.88 -2.06, 22.66 -2.47 M0 0 C3.78 -0.41, 18.88 -2.06, 22.66 -2.47" stroke="#000000" stroke-width="2" fill="none"></path></g></g><mask></mask><g stroke-linecap="round"><g transform="translate(11.77183622989287 83.00834039655729) rotate(0 264.60560659372413 0.5284567111203984)"><path d="M1.14 -1.17 C89.11 -0.93, 441.21 0.47, 528.93 0.68 M0.28 0.83 C88.08 1.34, 440.77 2.2, 528.47 2.23" stroke="#000000" stroke-width="1" fill="none"></path></g></g><mask></mask><g stroke-linecap="round" transform="translate(98.0317863178534 56.86701898735498) rotate(0 5.331633375252068 5.331633375252096)"><path d="M1 2.19 C1 2.19, 1 2.19, 1 2.19 M1 2.19 C1 2.19, 1 2.19, 1 2.19 M0.74 8.59 C2.62 6.42, 4.5 4.25, 7.3 1.04 M0.74 8.59 C2.95 6.05, 5.16 3.5, 7.3 1.04 M3.75 11.21 C5.45 9.27, 7.14 7.32, 10.32 3.67 M3.75 11.21 C6.25 8.34, 8.75 5.47, 10.32 3.67" stroke="#c8c8c8" stroke-width="0.5" fill="none"></path><path d="M10.66 5.33 C10.66 5.64, 10.64 5.95, 10.58 6.26 C10.53 6.56, 10.45 6.87, 10.34 7.16 C10.24 7.45, 10.1 7.73, 9.95 8 C9.79 8.26, 9.61 8.52, 9.42 8.76 C9.22 9, 9 9.22, 8.76 9.42 C8.52 9.61, 8.26 9.79, 8 9.95 C7.73 10.1, 7.45 10.24, 7.16 10.34 C6.87 10.45, 6.56 10.53, 6.26 10.58 C5.95 10.64, 5.64 10.66, 5.33 10.66 C5.02 10.66, 4.71 10.64, 4.41 10.58 C4.1 10.53, 3.8 10.45, 3.51 10.34 C3.22 10.24, 2.93 10.1, 2.67 9.95 C2.4 9.79, 2.14 9.61, 1.9 9.42 C1.67 9.22, 1.45 9, 1.25 8.76 C1.05 8.52, 0.87 8.26, 0.71 8 C0.56 7.73, 0.43 7.45, 0.32 7.16 C0.22 6.87, 0.13 6.56, 0.08 6.26 C0.03 5.95, 0 5.64, 0 5.33 C0 5.02, 0.03 4.71, 0.08 4.41 C0.13 4.1, 0.22 3.8, 0.32 3.51 C0.43 3.22, 0.56 2.93, 0.71 2.67 C0.87 2.4, 1.05 2.14, 1.25 1.9 C1.45 1.67, 1.67 1.45, 1.9 1.25 C2.14 1.05, 2.4 0.87, 2.67 0.71 C2.93 0.56, 3.22 0.43, 3.51 0.32 C3.8 0.22, 4.1 0.13, 4.41 0.08 C4.71 0.03, 5.02 0, 5.33 0 C5.64 0, 5.95 0.03, 6.26 0.08 C6.56 0.13, 6.87 0.22, 7.16 0.32 C7.45 0.43, 7.73 0.56, 8 0.71 C8.26 0.87, 8.52 1.05, 8.76 1.25 C9 1.45, 9.22 1.67, 9.42 1.9 C9.61 2.14, 9.79 2.4, 9.95 2.67 C10.1 2.93, 10.24 3.22, 10.34 3.51 C10.45 3.8, 10.53 4.1, 10.58 4.41 C10.64 4.71, 10.65 5.18, 10.66 5.33 C10.68 5.49, 10.68 5.18, 10.66 5.33" stroke="#000000" stroke-width="1" fill="none"></path></g><g stroke-linecap="round"><g transform="translate(107.47563574150536 66.7648324788488) rotate(0 3.370508602170048 2.8068947517865013)"><path d="M0 0 C1.12 0.94, 5.62 4.68, 6.74 5.61 M0 0 C1.12 0.94, 5.62 4.68, 6.74 5.61" stroke="#000000" stroke-width="1" fill="none"></path></g></g><mask></mask><g transform="translate(116.15673106450413 51.10023836855339) rotate(0 79.58990478515625 12)"><text x="0" y="0" font-family="Virgil, Segoe UI Emoji" font-size="20px" fill="#000000" text-anchor="start" style="white-space: pre;" direction="ltr" dominant-baseline="text-before-edge">https://foo.com/</text></g><g transform="translate(242.68956225528746 233.26507926117358) rotate(0 118.06987762451172 12)"><text x="0" y="0" font-family="Virgil, Segoe UI Emoji" font-size="20px" fill="#c92a2a" text-anchor="start" style="white-space: pre;" direction="ltr" dominant-baseline="text-before-edge">&lt;img width="1" height="1"&gt;</text></g><g stroke-linecap="round" transform="translate(523.5154857485422 336.4115632875079) rotate(0 6.745254234889899 6.903420684667225)"><path d="M0 0 C0 0, 0 0, 0 0 M0 0 C0 0, 0 0, 0 0 M-0.67 5.93 C0.48 4.16, 2.05 3.34, 4.99 0.12 M-0.58 6.4 C1.46 4.06, 3.14 2.36, 4.92 -0.04 M1.7 13.56 C2.9 8.31, 4.67 5.03, 10.98 -0.95 M-0.32 11.66 C2.78 8.26, 7 5.3, 11.28 0.65 M2.67 15.83 C6.26 9.03, 13.55 5.54, 14.27 1.28 M2.01 15.49 C7.64 9.6, 12.73 4.73, 15.44 1.75 M7.66 16.2 C10.09 13.61, 12.69 8.87, 15.11 7.81 M7.75 16.02 C10.51 12.81, 12.27 9.58, 14.86 7.42" stroke="#fa5252" stroke-width="0.5" fill="none"></path><path d="M1.05 0.06 C3.5 -0.4, 10.3 0.86, 14.5 -0.51 M0.49 -0.19 C3.57 0.1, 7.65 -0.27, 13.68 -0.08 M14.52 -0.38 C12.95 3.68, 13.93 7.24, 14.67 15.09 M13.68 -0.46 C13.71 3.91, 13.69 8.26, 14.03 14.14 M12.39 13.97 C10.75 13.42, 6.32 14.06, 0.2 13.91 M14.16 13.64 C7.91 13.65, 3.19 13.61, 0.6 13.32 M-1.14 12.71 C-0.3 10.33, 0.79 8.1, 0.21 1.12 M-0.38 14.36 C-0.39 11.31, 0.54 7.02, -0.14 0.17" stroke="#c8c8c8" stroke-width="1" fill="none"></path></g><g stroke-linecap="round"><g transform="translate(438.75932968606594 268.068842650761) rotate(0 39.59167773957279 30.793183734668048)"><path d="M1.62 0.73 C18.72 16.45, 39.77 30.29, 78.39 61.21 M0.14 0.37 C23.56 18.74, 49.41 37.19, 79.04 59.73" stroke="#c92a2a" stroke-width="1" fill="none"></path></g><g transform="translate(438.75932968606594 268.068842650761) rotate(0 39.59167773957279 30.793183734668048)"><path d="M51.96 51.73 C56.01 54.61, 64.34 55.79, 77.82 61.58 M50.48 51.38 C58.49 53.83, 68.43 56.46, 78.47 60.09" stroke="#c92a2a" stroke-width="1" fill="none"></path></g><g transform="translate(438.75932968606594 268.068842650761) rotate(0 39.59167773957279 30.793183734668048)"><path d="M64.28 35.32 C65.36 42.25, 70.61 47.53, 77.82 61.58 M62.81 34.97 C66.8 42.53, 72.89 50.29, 78.47 60.09" stroke="#c92a2a" stroke-width="1" fill="none"></path></g></g><mask></mask></svg>